<?xml version="1.0" encoding="UTF-8"?>
<svg xmlns="http://www.w3.org/2000/svg" xmlns:xlink="http://www.w3.org/1999/xlink" width="3872.98" height="3872.98" viewBox="0 0 3872.98 3872.98">
<defs>
<clipPath id="clip-0">
<path clip-rule="nonzero" d="M 804 697 L 3069 697 L 3069 3176 L 804 3176 Z M 804 697 "/>
</clipPath>
<clipPath id="clip-1">
<path clip-rule="evenodd" d="M 2577.101562 1271.488281 C 2571.46875 1271.488281 2565.820312 1270.070312 2560.578125 1267.261719 C 2544.25 1258.191406 2538.410156 1237.429688 2547.5 1221.101562 C 2549.308594 1217.679688 2595.269531 1130.171875 2545.660156 996.519531 C 2484.789062 832.21875 2545.660156 719.949219 2548.28125 715.308594 C 2557.359375 698.980469 2578.109375 693.148438 2594.441406 702.21875 C 2610.789062 711.300781 2616.621094 731.851562 2607.539062 748.191406 C 2605.308594 752.421875 2559.949219 839.910156 2609.148438 972.949219 C 2670.019531 1137.25 2609.148438 1249.328125 2606.53125 1254.171875 C 2600.511719 1265.238281 2589 1271.488281 2577.101562 1271.488281 Z M 2385.609375 1271.488281 C 2379.980469 1271.488281 2374.320312 1270.070312 2369.078125 1267.261719 C 2352.730469 1258.191406 2346.898438 1237.429688 2355.980469 1221.101562 C 2357.808594 1217.679688 2403.769531 1130.171875 2354.171875 996.519531 C 2293.28125 832.21875 2354.171875 720.148438 2356.789062 715.308594 C 2365.851562 698.980469 2386.609375 693.148438 2402.941406 702.21875 C 2419.269531 711.300781 2425.109375 731.851562 2416.019531 748.191406 C 2413.820312 752.421875 2368.449219 839.910156 2417.660156 972.949219 C 2478.53125 1137.25 2417.660156 1249.328125 2415.039062 1254.171875 C 2409.011719 1265.238281 2397.511719 1271.488281 2385.609375 1271.488281 Z M 2193.898438 1271.488281 C 2188.269531 1271.488281 2182.609375 1270.070312 2177.371094 1267.261719 C 2161.039062 1258.191406 2155.210938 1237.429688 2164.289062 1221.101562 C 2166.101562 1217.679688 2212.058594 1130.171875 2162.460938 996.519531 C 2101.589844 832.21875 2162.460938 719.949219 2165.078125 715.308594 C 2174.160156 698.980469 2194.898438 693.148438 2211.230469 702.21875 C 2227.558594 711.300781 2233.410156 731.851562 2224.328125 748.191406 C 2222.109375 752.421875 2176.738281 839.910156 2225.949219 972.949219 C 2286.839844 1137.25 2225.949219 1249.53125 2223.328125 1254.171875 C 2217.300781 1265.238281 2205.800781 1271.488281 2193.898438 1271.488281 Z M 2195.53125 1884.519531 C 2261.03125 1884.519531 2314.261719 1937.730469 2314.261719 2003.25 C 2314.261719 2068.769531 2261.03125 2121.980469 2195.53125 2121.980469 C 2130.019531 2121.980469 2076.789062 2068.769531 2076.789062 2003.25 C 2076.789062 1943.789062 2120.640625 1894.460938 2177.710938 1885.859375 C 2179.339844 1885.769531 2180.921875 1885.550781 2182.46875 1885.230469 C 2186.769531 1884.761719 2191.121094 1884.519531 2195.53125 1884.519531 Z M 1598.851562 2861.398438 L 1384.949219 2861.398438 C 1375.871094 2861.398438 1367.421875 2857.769531 1360.960938 2851.511719 L 1166.03125 2656.589844 C 1159.769531 2650.320312 1156.160156 2641.679688 1156.160156 2632.601562 L 1156.160156 2387.480469 C 1156.160156 2368.730469 1171.269531 2353.621094 1190.03125 2353.621094 C 1208.78125 2353.621094 1223.898438 2368.730469 1223.898438 2387.480469 L 1223.898438 2618.488281 L 1399.058594 2793.648438 L 1598.851562 2793.648438 C 1617.601562 2793.648438 1632.710938 2808.761719 1632.710938 2827.519531 C 1632.710938 2846.269531 1617.570312 2861.398438 1598.851562 2861.398438 Z M 2119.121094 2689.839844 C 2195.339844 2689.839844 2257.601562 2752.128906 2257.601562 2828.320312 C 2257.601562 2904.5 2195.300781 2966.609375 2119.121094 2966.609375 C 2042.929688 2966.609375 1980.828125 2904.699219 1980.828125 2828.320312 C 1980.828125 2751.929688 2042.710938 2689.839844 2119.121094 2689.839844 Z M 2119.121094 3034.339844 C 2005.421875 3034.339844 1913.101562 2941.808594 1913.101562 2828.320312 C 1913.101562 2714.820312 2005.621094 2622.308594 2119.121094 2622.308594 C 2232.609375 2622.308594 2325.128906 2714.820312 2325.128906 2828.320312 C 2325.128906 2941.808594 2232.800781 3034.339844 2119.121094 3034.339844 Z M 2119.121094 2549.128906 C 2272.929688 2549.128906 2398.101562 2674.320312 2398.101562 2828.128906 C 2398.101562 2981.921875 2272.910156 3107.109375 2119.121094 3107.109375 C 1965.308594 3107.109375 1840.121094 2981.921875 1840.121094 2828.128906 C 1840.121094 2674.320312 1965.308594 2549.128906 2119.121094 2549.128906 Z M 1426.691406 1903.039062 C 1448.238281 1903.039062 1466 1920.769531 1466 1942.351562 C 1466 1963.910156 1448.269531 1981.640625 1426.691406 1981.640625 C 1405.121094 1981.640625 1387.390625 1963.910156 1387.390625 1942.351562 C 1387.390625 1920.769531 1404.921875 1903.039062 1426.691406 1903.039062 Z M 1426.691406 2049.410156 C 1367.640625 2049.410156 1319.660156 2001.421875 1319.660156 1942.378906 C 1319.660156 1883.320312 1367.640625 1835.339844 1426.691406 1835.339844 C 1485.75 1835.339844 1533.730469 1883.320312 1533.730469 1942.378906 C 1533.730469 2001.421875 1485.75 2049.410156 1426.691406 2049.410156 Z M 1426.691406 1793.191406 C 1508.941406 1793.191406 1575.878906 1860.121094 1575.878906 1942.378906 C 1575.878906 2024.628906 1508.941406 2091.558594 1426.691406 2091.558594 C 1384.289062 2091.558594 1345.949219 2073.769531 1318.761719 2045.25 L 1318.738281 2045.230469 L 1318.730469 2045.230469 C 1317.949219 2044.300781 1317.140625 2043.421875 1316.289062 2042.589844 C 1292.21875 2016.078125 1277.511719 1980.910156 1277.511719 1942.378906 C 1277.511719 1860.121094 1344.449219 1793.191406 1426.691406 1793.191406 Z M 1426.691406 2159.070312 C 1543.25 2159.070312 1638.699219 2066.679688 1643.410156 1951.050781 L 2172.699219 2485.738281 C 2155.230469 2483.019531 2137.339844 2481.601562 2119.121094 2481.601562 C 1959.910156 2481.601562 1825.359375 2589.589844 1784.871094 2736.128906 L 1394.058594 2156.609375 C 1404.710938 2158.21875 1415.601562 2159.070312 1426.691406 2159.070312 Z M 1899.039062 1390.230469 L 1504.238281 1390.230469 C 1502.941406 1390.078125 1501.609375 1390 1500.269531 1390 C 1498.921875 1390 1497.589844 1390.078125 1496.289062 1390.230469 L 1405.71875 1390.230469 L 1405.71875 1302.921875 C 1405.71875 1254.738281 1444.820312 1215.640625 1493.011719 1215.640625 L 1909.878906 1215.671875 C 1958.058594 1215.671875 1997.160156 1254.769531 1997.160156 1302.941406 L 1997.160156 1390.230469 L 1906.988281 1390.230469 C 1905.691406 1390.078125 1904.359375 1390 1903.019531 1390 C 1901.671875 1390 1900.351562 1390.078125 1899.039062 1390.230469 Z M 2826.078125 2769.070312 L 2826.078125 2177.820312 L 2913.371094 2177.820312 C 2961.550781 2177.820312 3000.648438 2216.929688 3000.648438 2265.109375 L 3000.648438 2681.78125 C 3000.648438 2729.96875 2961.550781 2769.070312 2913.371094 2769.070312 Z M 2713.621094 2348.75 L 2758.351562 2348.75 L 2758.351562 2598.320312 L 2713.621094 2598.320312 Z M 1534.128906 1502.480469 L 1534.128906 1457.929688 L 1869.148438 1457.929688 L 1869.148438 1502.488281 Z M 2496.078125 2138.519531 L 2371.191406 2065.988281 C 2378.179688 2046.429688 2381.980469 2025.371094 2381.980469 2003.449219 C 2381.980469 1905.410156 2305.871094 1824.75 2209.640625 1817.511719 L 2209.640625 1737.960938 L 2466.648438 1737.980469 C 2483 1737.980469 2496.078125 1751.269531 2496.078125 1767.410156 Z M 2458.691406 2898.46875 C 2463.378906 2875.820312 2465.839844 2852.339844 2465.839844 2828.320312 C 2465.839844 2735.289062 2429.011719 2650.679688 2369.140625 2588.328125 C 2368.101562 2586.890625 2366.941406 2585.5 2365.648438 2584.191406 L 1595.738281 1806.429688 C 1555.941406 1756.960938 1494.941406 1725.230469 1426.691406 1725.230469 C 1307.140625 1725.230469 1209.78125 1822.621094 1209.78125 1942.148438 C 1209.78125 1997.988281 1231.039062 2048.988281 1265.871094 2087.5 L 1772.570312 2838.878906 C 1773.191406 2859.148438 1775.539062 2878.988281 1779.511719 2898.28125 L 1325.921875 2898.28125 L 1099.128906 2671.480469 L 1099.128906 2230.070312 C 1099.238281 2228.941406 1099.300781 2227.78125 1099.300781 2226.601562 C 1099.300781 2225.441406 1099.238281 2224.269531 1099.128906 2223.128906 L 1099.128906 1767.378906 C 1099.128906 1751.050781 1112.410156 1737.949219 1128.558594 1737.949219 L 1227.308594 1737.980469 C 1246.058594 1737.980469 1261.179688 1722.871094 1261.179688 1704.109375 L 1261.179688 1632.539062 C 1261.179688 1598.269531 1289.199219 1570.238281 1323.46875 1570.238281 L 1496.480469 1570.238281 C 1497.730469 1570.378906 1498.988281 1570.441406 1500.269531 1570.441406 C 1501.53125 1570.441406 1502.78125 1570.378906 1504.011719 1570.238281 L 1899.109375 1570.21875 C 1900.390625 1570.371094 1901.691406 1570.441406 1903.019531 1570.441406 C 1904.339844 1570.441406 1905.648438 1570.371094 1906.929688 1570.21875 L 2079.410156 1570.210938 C 2113.679688 1570.210938 2141.71875 1598.238281 2141.71875 1632.511719 L 2141.71875 1704.078125 C 2141.71875 1705.339844 2141.769531 1706.578125 2141.910156 1707.808594 L 2141.910156 1824.859375 C 2065.148438 1847.941406 2009.058594 1919.28125 2009.058594 2003.449219 C 2009.058594 2106.238281 2092.71875 2189.921875 2195.53125 2189.921875 C 2252.089844 2189.921875 2302.871094 2164.570312 2337.109375 2124.640625 L 2513.019531 2226.800781 C 2518.261719 2230.011719 2524.109375 2231.441406 2529.960938 2231.441406 C 2531.191406 2231.441406 2532.429688 2231.371094 2533.628906 2231.230469 L 2583.371094 2231.210938 C 2617.640625 2231.210938 2645.679688 2259.238281 2645.679688 2293.519531 L 2645.679688 2653.359375 C 2645.679688 2687.609375 2617.640625 2715.648438 2583.371094 2715.648438 L 2529.960938 2715.648438 C 2511.210938 2715.648438 2496.078125 2730.761719 2496.078125 2749.511719 L 2496.078125 2869.039062 C 2496.078125 2885.371094 2482.800781 2898.46875 2466.648438 2898.46875 Z M 2466.648438 2966.199219 C 2520.289062 2966.199219 2563.828125 2922.46875 2564.019531 2869.039062 L 2564.019531 2783.390625 L 2583.558594 2783.410156 C 2651.070312 2783.410156 2706.621094 2731.878906 2712.988281 2666.039062 L 2758.351562 2666.039062 L 2758.351562 2802.929688 C 2758.351562 2821.691406 2773.460938 2836.800781 2792.21875 2836.800781 L 2913.371094 2836.800781 C 2998.820312 2836.800781 3068.378906 2767.441406 3068.378906 2681.980469 L 3068.378906 2265.109375 C 3068.378906 2179.640625 2998.820312 2110.078125 2913.371094 2110.078125 L 2792.21875 2110.078125 C 2773.460938 2110.078125 2758.351562 2125.210938 2758.351562 2143.960938 L 2758.351562 2281.011719 L 2713.011719 2281.011719 C 2706.699219 2215.109375 2651.109375 2163.5 2583.558594 2163.5 L 2564.019531 2163.480469 L 2564.019531 1767.378906 C 2564.019531 1713.761719 2520.46875 1670.21875 2466.871094 1670.21875 L 2209.640625 1670.25 L 2209.640625 1632.539062 C 2209.640625 1560.761719 2151.390625 1502.5 2079.601562 1502.5 L 1936.890625 1502.488281 L 1936.890625 1457.929688 L 2031.03125 1457.929688 C 2049.800781 1457.929688 2064.910156 1442.628906 2065.109375 1424.101562 L 2065.109375 1302.941406 C 2065.109375 1217.480469 1995.550781 1147.929688 1910.078125 1147.929688 L 1493.199219 1147.898438 C 1407.738281 1147.898438 1338.179688 1217.449219 1338.179688 1302.921875 L 1338.179688 1424.070312 C 1338.179688 1442.820312 1353.300781 1457.929688 1372.058594 1457.929688 L 1466.390625 1457.929688 L 1466.390625 1502.480469 L 1323.679688 1502.46875 C 1251.890625 1502.46875 1193.640625 1560.730469 1193.640625 1632.511719 L 1193.640625 1670.21875 L 1128.71875 1670.21875 C 1075.101562 1670.21875 1031.570312 1713.761719 1031.570312 1767.378906 L 1031.570312 2192.738281 L 872.339844 2192.738281 L 872.339844 1969.78125 C 872.339844 1951.03125 857.222656 1935.921875 838.46875 1935.921875 C 819.714844 1935.921875 804.597656 1951.03125 804.597656 1969.78125 L 804.597656 2483.421875 C 804.597656 2502.171875 819.714844 2517.28125 838.46875 2517.28125 C 857.222656 2517.28125 872.339844 2502.148438 872.339844 2483.421875 L 872.339844 2260.460938 L 1031.570312 2260.460938 L 1031.570312 2685.589844 C 1031.570312 2694.671875 1035.171875 2703.328125 1041.441406 2709.578125 L 1287.980469 2956.128906 C 1294.441406 2962.398438 1302.890625 2966 1311.96875 2966 L 1800.949219 2966 C 1854.300781 3088.859375 1976.761719 3175.050781 2119.121094 3175.050781 C 2261.25 3175.050781 2383.738281 3088.941406 2437.179688 2966.199219 Z M 2768.851562 1271.488281 C 2763.21875 1271.488281 2757.550781 1270.070312 2752.308594 1267.261719 C 2735.980469 1258.191406 2730.148438 1237.429688 2739.230469 1221.101562 C 2741.039062 1217.679688 2787 1130.171875 2737.390625 996.519531 C 2676.519531 832.21875 2737.390625 719.949219 2740.011719 715.308594 C 2749.101562 698.980469 2769.839844 693.148438 2786.171875 702.21875 C 2802.519531 711.300781 2808.351562 731.851562 2799.269531 748.191406 C 2797.039062 752.421875 2751.679688 839.910156 2800.878906 972.949219 C 2861.769531 1137.25 2800.878906 1249.53125 2798.28125 1254.171875 C 2792.21875 1265.238281 2780.710938 1271.488281 2768.851562 1271.488281 "/>
</clipPath>
<linearGradient id="linear-pattern-0" gradientUnits="userSpaceOnUse" x1="0" y1="0" x2="1.000002" y2="0" gradientTransform="matrix(2263.78, 0, 0, 2263.78, 804.596, 1936.5)">
<stop offset="0" stop-color="rgb(94.508362%, 95.684814%, 98.03772%)" stop-opacity="1"/>
<stop offset="0.00390625" stop-color="rgb(94.276428%, 95.518494%, 97.958374%)" stop-opacity="1"/>
<stop offset="0.0078125" stop-color="rgb(94.046021%, 95.352173%, 97.879028%)" stop-opacity="1"/>
<stop offset="0.0117188" stop-color="rgb(93.814087%, 95.184326%, 97.799683%)" stop-opacity="1"/>
<stop offset="0.015625" stop-color="rgb(93.583679%, 95.018005%, 97.720337%)" stop-opacity="1"/>
<stop offset="0.0195313" stop-color="rgb(93.351746%, 94.850159%, 97.639465%)" stop-opacity="1"/>
<stop offset="0.0234375" stop-color="rgb(93.121338%, 94.683838%, 97.56012%)" stop-opacity="1"/>
<stop offset="0.0273438" stop-color="rgb(92.889404%, 94.515991%, 97.480774%)" stop-opacity="1"/>
<stop offset="0.03125" stop-color="rgb(92.658997%, 94.34967%, 97.401428%)" stop-opacity="1"/>
<stop offset="0.0351563" stop-color="rgb(92.427063%, 94.181824%, 97.320557%)" stop-opacity="1"/>
<stop offset="0.0390625" stop-color="rgb(92.196655%, 94.015503%, 97.241211%)" stop-opacity="1"/>
<stop offset="0.0429688" stop-color="rgb(91.964722%, 93.847656%, 97.161865%)" stop-opacity="1"/>
<stop offset="0.046875" stop-color="rgb(91.732788%, 93.681335%, 97.08252%)" stop-opacity="1"/>
<stop offset="0.0507812" stop-color="rgb(91.500854%, 93.513489%, 97.003174%)" stop-opacity="1"/>
<stop offset="0.0546875" stop-color="rgb(91.270447%, 93.347168%, 96.923828%)" stop-opacity="1"/>
<stop offset="0.0585938" stop-color="rgb(91.038513%, 93.180847%, 96.842957%)" stop-opacity="1"/>
<stop offset="0.0625" stop-color="rgb(90.808105%, 93.014526%, 96.763611%)" stop-opacity="1"/>
<stop offset="0.0664063" stop-color="rgb(90.576172%, 92.84668%, 96.684265%)" stop-opacity="1"/>
<stop offset="0.0703125" stop-color="rgb(90.345764%, 92.680359%, 96.604919%)" stop-opacity="1"/>
<stop offset="0.0742188" stop-color="rgb(90.113831%, 92.512512%, 96.524048%)" stop-opacity="1"/>
<stop offset="0.078125" stop-color="rgb(89.883423%, 92.346191%, 96.444702%)" stop-opacity="1"/>
<stop offset="0.0820313" stop-color="rgb(89.651489%, 92.178345%, 96.365356%)" stop-opacity="1"/>
<stop offset="0.0859375" stop-color="rgb(89.419556%, 92.012024%, 96.286011%)" stop-opacity="1"/>
<stop offset="0.0898438" stop-color="rgb(89.187622%, 91.844177%, 96.206665%)" stop-opacity="1"/>
<stop offset="0.09375" stop-color="rgb(88.957214%, 91.677856%, 96.127319%)" stop-opacity="1"/>
<stop offset="0.0976562" stop-color="rgb(88.725281%, 91.51001%, 96.046448%)" stop-opacity="1"/>
<stop offset="0.101562" stop-color="rgb(88.494873%, 91.343689%, 95.967102%)" stop-opacity="1"/>
<stop offset="0.105469" stop-color="rgb(88.262939%, 91.175842%, 95.887756%)" stop-opacity="1"/>
<stop offset="0.109375" stop-color="rgb(88.032532%, 91.009521%, 95.808411%)" stop-opacity="1"/>
<stop offset="0.113281" stop-color="rgb(87.800598%, 90.843201%, 95.727539%)" stop-opacity="1"/>
<stop offset="0.117188" stop-color="rgb(87.57019%, 90.67688%, 95.648193%)" stop-opacity="1"/>
<stop offset="0.121094" stop-color="rgb(87.338257%, 90.509033%, 95.568848%)" stop-opacity="1"/>
<stop offset="0.125" stop-color="rgb(87.106323%, 90.342712%, 95.489502%)" stop-opacity="1"/>
<stop offset="0.128906" stop-color="rgb(86.87439%, 90.174866%, 95.410156%)" stop-opacity="1"/>
<stop offset="0.132813" stop-color="rgb(86.643982%, 90.008545%, 95.330811%)" stop-opacity="1"/>
<stop offset="0.136719" stop-color="rgb(86.412048%, 89.840698%, 95.249939%)" stop-opacity="1"/>
<stop offset="0.140625" stop-color="rgb(86.181641%, 89.674377%, 95.170593%)" stop-opacity="1"/>
<stop offset="0.144531" stop-color="rgb(85.949707%, 89.506531%, 95.091248%)" stop-opacity="1"/>
<stop offset="0.148438" stop-color="rgb(85.719299%, 89.34021%, 95.011902%)" stop-opacity="1"/>
<stop offset="0.152344" stop-color="rgb(85.487366%, 89.172363%, 94.93103%)" stop-opacity="1"/>
<stop offset="0.15625" stop-color="rgb(85.256958%, 89.006042%, 94.851685%)" stop-opacity="1"/>
<stop offset="0.160156" stop-color="rgb(85.025024%, 88.839722%, 94.772339%)" stop-opacity="1"/>
<stop offset="0.164063" stop-color="rgb(84.794617%, 88.673401%, 94.692993%)" stop-opacity="1"/>
<stop offset="0.167969" stop-color="rgb(84.562683%, 88.505554%, 94.612122%)" stop-opacity="1"/>
<stop offset="0.171875" stop-color="rgb(84.33075%, 88.339233%, 94.532776%)" stop-opacity="1"/>
<stop offset="0.175781" stop-color="rgb(84.098816%, 88.171387%, 94.45343%)" stop-opacity="1"/>
<stop offset="0.179688" stop-color="rgb(83.868408%, 88.005066%, 94.374084%)" stop-opacity="1"/>
<stop offset="0.183594" stop-color="rgb(83.636475%, 87.837219%, 94.294739%)" stop-opacity="1"/>
<stop offset="0.1875" stop-color="rgb(83.406067%, 87.670898%, 94.215393%)" stop-opacity="1"/>
<stop offset="0.191406" stop-color="rgb(83.174133%, 87.503052%, 94.134521%)" stop-opacity="1"/>
<stop offset="0.195312" stop-color="rgb(82.943726%, 87.336731%, 94.055176%)" stop-opacity="1"/>
<stop offset="0.199219" stop-color="rgb(82.711792%, 87.168884%, 93.97583%)" stop-opacity="1"/>
<stop offset="0.203125" stop-color="rgb(82.481384%, 87.002563%, 93.896484%)" stop-opacity="1"/>
<stop offset="0.207031" stop-color="rgb(82.249451%, 86.834717%, 93.815613%)" stop-opacity="1"/>
<stop offset="0.210938" stop-color="rgb(82.017517%, 86.668396%, 93.736267%)" stop-opacity="1"/>
<stop offset="0.214844" stop-color="rgb(81.785583%, 86.502075%, 93.656921%)" stop-opacity="1"/>
<stop offset="0.21875" stop-color="rgb(81.555176%, 86.335754%, 93.577576%)" stop-opacity="1"/>
<stop offset="0.222656" stop-color="rgb(81.323242%, 86.167908%, 93.49823%)" stop-opacity="1"/>
<stop offset="0.226562" stop-color="rgb(81.092834%, 86.001587%, 93.418884%)" stop-opacity="1"/>
<stop offset="0.230469" stop-color="rgb(80.860901%, 85.83374%, 93.338013%)" stop-opacity="1"/>
<stop offset="0.234375" stop-color="rgb(80.630493%, 85.667419%, 93.258667%)" stop-opacity="1"/>
<stop offset="0.238281" stop-color="rgb(80.39856%, 85.499573%, 93.179321%)" stop-opacity="1"/>
<stop offset="0.242188" stop-color="rgb(80.168152%, 85.333252%, 93.099976%)" stop-opacity="1"/>
<stop offset="0.246094" stop-color="rgb(79.936218%, 85.165405%, 93.019104%)" stop-opacity="1"/>
<stop offset="0.25" stop-color="rgb(79.705811%, 84.999084%, 92.939758%)" stop-opacity="1"/>
<stop offset="0.253906" stop-color="rgb(79.473877%, 84.831238%, 92.860413%)" stop-opacity="1"/>
<stop offset="0.257812" stop-color="rgb(79.241943%, 84.664917%, 92.781067%)" stop-opacity="1"/>
<stop offset="0.261719" stop-color="rgb(79.01001%, 84.49707%, 92.701721%)" stop-opacity="1"/>
<stop offset="0.265625" stop-color="rgb(78.779602%, 84.33075%, 92.622375%)" stop-opacity="1"/>
<stop offset="0.269531" stop-color="rgb(78.547668%, 84.164429%, 92.541504%)" stop-opacity="1"/>
<stop offset="0.273438" stop-color="rgb(78.317261%, 83.998108%, 92.462158%)" stop-opacity="1"/>
<stop offset="0.277344" stop-color="rgb(78.085327%, 83.830261%, 92.382812%)" stop-opacity="1"/>
<stop offset="0.28125" stop-color="rgb(77.854919%, 83.66394%, 92.303467%)" stop-opacity="1"/>
<stop offset="0.285156" stop-color="rgb(77.622986%, 83.496094%, 92.222595%)" stop-opacity="1"/>
<stop offset="0.289063" stop-color="rgb(77.392578%, 83.329773%, 92.14325%)" stop-opacity="1"/>
<stop offset="0.292969" stop-color="rgb(77.160645%, 83.161926%, 92.063904%)" stop-opacity="1"/>
<stop offset="0.296875" stop-color="rgb(76.928711%, 82.995605%, 91.984558%)" stop-opacity="1"/>
<stop offset="0.300781" stop-color="rgb(76.696777%, 82.827759%, 91.905212%)" stop-opacity="1"/>
<stop offset="0.304688" stop-color="rgb(76.46637%, 82.661438%, 91.825867%)" stop-opacity="1"/>
<stop offset="0.308594" stop-color="rgb(76.234436%, 82.493591%, 91.744995%)" stop-opacity="1"/>
<stop offset="0.3125" stop-color="rgb(76.004028%, 82.327271%, 91.665649%)" stop-opacity="1"/>
<stop offset="0.316406" stop-color="rgb(75.772095%, 82.159424%, 91.586304%)" stop-opacity="1"/>
<stop offset="0.320313" stop-color="rgb(75.541687%, 81.993103%, 91.506958%)" stop-opacity="1"/>
<stop offset="0.324219" stop-color="rgb(75.309753%, 81.826782%, 91.426086%)" stop-opacity="1"/>
<stop offset="0.328125" stop-color="rgb(75.079346%, 81.660461%, 91.346741%)" stop-opacity="1"/>
<stop offset="0.332031" stop-color="rgb(74.847412%, 81.492615%, 91.267395%)" stop-opacity="1"/>
<stop offset="0.335938" stop-color="rgb(74.615479%, 81.326294%, 91.188049%)" stop-opacity="1"/>
<stop offset="0.339844" stop-color="rgb(74.383545%, 81.158447%, 91.108704%)" stop-opacity="1"/>
<stop offset="0.34375" stop-color="rgb(74.153137%, 80.992126%, 91.029358%)" stop-opacity="1"/>
<stop offset="0.347656" stop-color="rgb(73.921204%, 80.82428%, 90.948486%)" stop-opacity="1"/>
<stop offset="0.351563" stop-color="rgb(73.690796%, 80.657959%, 90.869141%)" stop-opacity="1"/>
<stop offset="0.355469" stop-color="rgb(73.458862%, 80.490112%, 90.789795%)" stop-opacity="1"/>
<stop offset="0.359375" stop-color="rgb(73.228455%, 80.323792%, 90.710449%)" stop-opacity="1"/>
<stop offset="0.363281" stop-color="rgb(72.996521%, 80.155945%, 90.629578%)" stop-opacity="1"/>
<stop offset="0.367188" stop-color="rgb(72.766113%, 79.989624%, 90.550232%)" stop-opacity="1"/>
<stop offset="0.371094" stop-color="rgb(72.53418%, 79.821777%, 90.470886%)" stop-opacity="1"/>
<stop offset="0.375" stop-color="rgb(72.303772%, 79.655457%, 90.391541%)" stop-opacity="1"/>
<stop offset="0.378906" stop-color="rgb(72.071838%, 79.489136%, 90.310669%)" stop-opacity="1"/>
<stop offset="0.382812" stop-color="rgb(71.839905%, 79.322815%, 90.231323%)" stop-opacity="1"/>
<stop offset="0.386719" stop-color="rgb(71.607971%, 79.154968%, 90.151978%)" stop-opacity="1"/>
<stop offset="0.390625" stop-color="rgb(71.377563%, 78.988647%, 90.072632%)" stop-opacity="1"/>
<stop offset="0.394531" stop-color="rgb(71.14563%, 78.820801%, 89.993286%)" stop-opacity="1"/>
<stop offset="0.398438" stop-color="rgb(70.915222%, 78.65448%, 89.91394%)" stop-opacity="1"/>
<stop offset="0.402344" stop-color="rgb(70.683289%, 78.486633%, 89.833069%)" stop-opacity="1"/>
<stop offset="0.40625" stop-color="rgb(70.452881%, 78.320312%, 89.753723%)" stop-opacity="1"/>
<stop offset="0.410156" stop-color="rgb(70.220947%, 78.152466%, 89.674377%)" stop-opacity="1"/>
<stop offset="0.414062" stop-color="rgb(69.99054%, 77.986145%, 89.595032%)" stop-opacity="1"/>
<stop offset="0.417969" stop-color="rgb(69.758606%, 77.818298%, 89.51416%)" stop-opacity="1"/>
<stop offset="0.421875" stop-color="rgb(69.526672%, 77.651978%, 89.434814%)" stop-opacity="1"/>
<stop offset="0.425781" stop-color="rgb(69.294739%, 77.484131%, 89.355469%)" stop-opacity="1"/>
<stop offset="0.429688" stop-color="rgb(69.064331%, 77.31781%, 89.276123%)" stop-opacity="1"/>
<stop offset="0.433594" stop-color="rgb(68.832397%, 77.151489%, 89.196777%)" stop-opacity="1"/>
<stop offset="0.4375" stop-color="rgb(68.60199%, 76.985168%, 89.117432%)" stop-opacity="1"/>
<stop offset="0.441406" stop-color="rgb(68.370056%, 76.817322%, 89.03656%)" stop-opacity="1"/>
<stop offset="0.445312" stop-color="rgb(68.139648%, 76.651001%, 88.957214%)" stop-opacity="1"/>
<stop offset="0.449219" stop-color="rgb(67.907715%, 76.483154%, 88.877869%)" stop-opacity="1"/>
<stop offset="0.453125" stop-color="rgb(67.677307%, 76.316833%, 88.798523%)" stop-opacity="1"/>
<stop offset="0.457031" stop-color="rgb(67.445374%, 76.148987%, 88.717651%)" stop-opacity="1"/>
<stop offset="0.460938" stop-color="rgb(67.214966%, 75.982666%, 88.638306%)" stop-opacity="1"/>
<stop offset="0.464844" stop-color="rgb(66.983032%, 75.814819%, 88.55896%)" stop-opacity="1"/>
<stop offset="0.46875" stop-color="rgb(66.751099%, 75.648499%, 88.479614%)" stop-opacity="1"/>
<stop offset="0.472656" stop-color="rgb(66.519165%, 75.480652%, 88.400269%)" stop-opacity="1"/>
<stop offset="0.476562" stop-color="rgb(66.288757%, 75.314331%, 88.320923%)" stop-opacity="1"/>
<stop offset="0.480469" stop-color="rgb(66.056824%, 75.146484%, 88.240051%)" stop-opacity="1"/>
<stop offset="0.484375" stop-color="rgb(65.826416%, 74.980164%, 88.160706%)" stop-opacity="1"/>
<stop offset="0.488281" stop-color="rgb(65.594482%, 74.813843%, 88.08136%)" stop-opacity="1"/>
<stop offset="0.492188" stop-color="rgb(65.364075%, 74.647522%, 88.002014%)" stop-opacity="1"/>
<stop offset="0.496094" stop-color="rgb(65.132141%, 74.479675%, 87.921143%)" stop-opacity="1"/>
<stop offset="0.5" stop-color="rgb(64.901733%, 74.313354%, 87.841797%)" stop-opacity="1"/>
<stop offset="0.503906" stop-color="rgb(64.6698%, 74.145508%, 87.762451%)" stop-opacity="1"/>
<stop offset="0.507812" stop-color="rgb(64.437866%, 73.979187%, 87.683105%)" stop-opacity="1"/>
<stop offset="0.511719" stop-color="rgb(64.205933%, 73.81134%, 87.60376%)" stop-opacity="1"/>
<stop offset="0.515625" stop-color="rgb(63.975525%, 73.64502%, 87.524414%)" stop-opacity="1"/>
<stop offset="0.519531" stop-color="rgb(63.743591%, 73.477173%, 87.443542%)" stop-opacity="1"/>
<stop offset="0.523438" stop-color="rgb(63.513184%, 73.310852%, 87.364197%)" stop-opacity="1"/>
<stop offset="0.527344" stop-color="rgb(63.28125%, 73.143005%, 87.284851%)" stop-opacity="1"/>
<stop offset="0.53125" stop-color="rgb(63.050842%, 72.976685%, 87.205505%)" stop-opacity="1"/>
<stop offset="0.535156" stop-color="rgb(62.818909%, 72.808838%, 87.124634%)" stop-opacity="1"/>
<stop offset="0.539063" stop-color="rgb(62.588501%, 72.642517%, 87.045288%)" stop-opacity="1"/>
<stop offset="0.542969" stop-color="rgb(62.356567%, 72.476196%, 86.965942%)" stop-opacity="1"/>
<stop offset="0.546875" stop-color="rgb(62.124634%, 72.309875%, 86.886597%)" stop-opacity="1"/>
<stop offset="0.550781" stop-color="rgb(61.8927%, 72.142029%, 86.807251%)" stop-opacity="1"/>
<stop offset="0.554688" stop-color="rgb(61.662292%, 71.975708%, 86.727905%)" stop-opacity="1"/>
<stop offset="0.558594" stop-color="rgb(61.430359%, 71.807861%, 86.647034%)" stop-opacity="1"/>
<stop offset="0.5625" stop-color="rgb(61.199951%, 71.641541%, 86.567688%)" stop-opacity="1"/>
<stop offset="0.566406" stop-color="rgb(60.968018%, 71.473694%, 86.488342%)" stop-opacity="1"/>
<stop offset="0.570313" stop-color="rgb(60.73761%, 71.307373%, 86.408997%)" stop-opacity="1"/>
<stop offset="0.574219" stop-color="rgb(60.505676%, 71.139526%, 86.328125%)" stop-opacity="1"/>
<stop offset="0.578125" stop-color="rgb(60.275269%, 70.973206%, 86.248779%)" stop-opacity="1"/>
<stop offset="0.582031" stop-color="rgb(60.043335%, 70.805359%, 86.169434%)" stop-opacity="1"/>
<stop offset="0.585938" stop-color="rgb(59.812927%, 70.639038%, 86.090088%)" stop-opacity="1"/>
<stop offset="0.589844" stop-color="rgb(59.580994%, 70.471191%, 86.009216%)" stop-opacity="1"/>
<stop offset="0.59375" stop-color="rgb(59.34906%, 70.304871%, 85.929871%)" stop-opacity="1"/>
<stop offset="0.597656" stop-color="rgb(59.117126%, 70.13855%, 85.850525%)" stop-opacity="1"/>
<stop offset="0.601563" stop-color="rgb(58.886719%, 69.972229%, 85.771179%)" stop-opacity="1"/>
<stop offset="0.605469" stop-color="rgb(58.654785%, 69.804382%, 85.691833%)" stop-opacity="1"/>
<stop offset="0.609375" stop-color="rgb(58.424377%, 69.638062%, 85.612488%)" stop-opacity="1"/>
<stop offset="0.613281" stop-color="rgb(58.192444%, 69.470215%, 85.531616%)" stop-opacity="1"/>
<stop offset="0.617188" stop-color="rgb(57.962036%, 69.303894%, 85.452271%)" stop-opacity="1"/>
<stop offset="0.621094" stop-color="rgb(57.730103%, 69.136047%, 85.372925%)" stop-opacity="1"/>
<stop offset="0.625" stop-color="rgb(57.499695%, 68.969727%, 85.293579%)" stop-opacity="1"/>
<stop offset="0.628906" stop-color="rgb(57.267761%, 68.80188%, 85.212708%)" stop-opacity="1"/>
<stop offset="0.632813" stop-color="rgb(57.035828%, 68.635559%, 85.133362%)" stop-opacity="1"/>
<stop offset="0.636719" stop-color="rgb(56.803894%, 68.467712%, 85.054016%)" stop-opacity="1"/>
<stop offset="0.640625" stop-color="rgb(56.573486%, 68.301392%, 84.97467%)" stop-opacity="1"/>
<stop offset="0.644531" stop-color="rgb(56.341553%, 68.133545%, 84.895325%)" stop-opacity="1"/>
<stop offset="0.648438" stop-color="rgb(56.111145%, 67.967224%, 84.815979%)" stop-opacity="1"/>
<stop offset="0.652344" stop-color="rgb(55.879211%, 67.800903%, 84.735107%)" stop-opacity="1"/>
<stop offset="0.65625" stop-color="rgb(55.648804%, 67.634583%, 84.655762%)" stop-opacity="1"/>
<stop offset="0.660156" stop-color="rgb(55.41687%, 67.466736%, 84.576416%)" stop-opacity="1"/>
<stop offset="0.664063" stop-color="rgb(55.186462%, 67.300415%, 84.49707%)" stop-opacity="1"/>
<stop offset="0.667969" stop-color="rgb(54.954529%, 67.132568%, 84.416199%)" stop-opacity="1"/>
<stop offset="0.671875" stop-color="rgb(54.724121%, 66.966248%, 84.336853%)" stop-opacity="1"/>
<stop offset="0.675781" stop-color="rgb(54.492188%, 66.798401%, 84.257507%)" stop-opacity="1"/>
<stop offset="0.679688" stop-color="rgb(54.260254%, 66.63208%, 84.178162%)" stop-opacity="1"/>
<stop offset="0.683594" stop-color="rgb(54.02832%, 66.464233%, 84.098816%)" stop-opacity="1"/>
<stop offset="0.6875" stop-color="rgb(53.797913%, 66.297913%, 84.01947%)" stop-opacity="1"/>
<stop offset="0.691406" stop-color="rgb(53.565979%, 66.130066%, 83.938599%)" stop-opacity="1"/>
<stop offset="0.695313" stop-color="rgb(53.335571%, 65.963745%, 83.859253%)" stop-opacity="1"/>
<stop offset="0.699219" stop-color="rgb(53.103638%, 65.795898%, 83.779907%)" stop-opacity="1"/>
<stop offset="0.703125" stop-color="rgb(52.87323%, 65.629578%, 83.700562%)" stop-opacity="1"/>
<stop offset="0.707031" stop-color="rgb(52.641296%, 65.463257%, 83.61969%)" stop-opacity="1"/>
<stop offset="0.710938" stop-color="rgb(52.410889%, 65.296936%, 83.540344%)" stop-opacity="1"/>
<stop offset="0.714844" stop-color="rgb(52.178955%, 65.129089%, 83.460999%)" stop-opacity="1"/>
<stop offset="0.71875" stop-color="rgb(51.947021%, 64.962769%, 83.381653%)" stop-opacity="1"/>
<stop offset="0.722656" stop-color="rgb(51.715088%, 64.794922%, 83.302307%)" stop-opacity="1"/>
<stop offset="0.726563" stop-color="rgb(51.48468%, 64.628601%, 83.222961%)" stop-opacity="1"/>
<stop offset="0.730469" stop-color="rgb(51.252747%, 64.460754%, 83.14209%)" stop-opacity="1"/>
<stop offset="0.734375" stop-color="rgb(51.022339%, 64.294434%, 83.062744%)" stop-opacity="1"/>
<stop offset="0.738281" stop-color="rgb(50.790405%, 64.126587%, 82.983398%)" stop-opacity="1"/>
<stop offset="0.742188" stop-color="rgb(50.559998%, 63.960266%, 82.904053%)" stop-opacity="1"/>
<stop offset="0.746094" stop-color="rgb(50.328064%, 63.792419%, 82.823181%)" stop-opacity="1"/>
<stop offset="0.75" stop-color="rgb(50.097656%, 63.626099%, 82.743835%)" stop-opacity="1"/>
<stop offset="0.753906" stop-color="rgb(49.865723%, 63.459778%, 82.66449%)" stop-opacity="1"/>
<stop offset="0.757813" stop-color="rgb(49.635315%, 63.293457%, 82.585144%)" stop-opacity="1"/>
<stop offset="0.761719" stop-color="rgb(49.403381%, 63.12561%, 82.505798%)" stop-opacity="1"/>
<stop offset="0.765625" stop-color="rgb(49.171448%, 62.95929%, 82.426453%)" stop-opacity="1"/>
<stop offset="0.769531" stop-color="rgb(48.939514%, 62.791443%, 82.345581%)" stop-opacity="1"/>
<stop offset="0.773438" stop-color="rgb(48.709106%, 62.625122%, 82.266235%)" stop-opacity="1"/>
<stop offset="0.777344" stop-color="rgb(48.477173%, 62.457275%, 82.18689%)" stop-opacity="1"/>
<stop offset="0.78125" stop-color="rgb(48.246765%, 62.290955%, 82.107544%)" stop-opacity="1"/>
<stop offset="0.785156" stop-color="rgb(48.014832%, 62.123108%, 82.026672%)" stop-opacity="1"/>
<stop offset="0.789063" stop-color="rgb(47.784424%, 61.956787%, 81.947327%)" stop-opacity="1"/>
<stop offset="0.792969" stop-color="rgb(47.55249%, 61.78894%, 81.867981%)" stop-opacity="1"/>
<stop offset="0.796875" stop-color="rgb(47.322083%, 61.62262%, 81.788635%)" stop-opacity="1"/>
<stop offset="0.800781" stop-color="rgb(47.090149%, 61.454773%, 81.707764%)" stop-opacity="1"/>
<stop offset="0.804688" stop-color="rgb(46.858215%, 61.288452%, 81.628418%)" stop-opacity="1"/>
<stop offset="0.808594" stop-color="rgb(46.626282%, 61.122131%, 81.549072%)" stop-opacity="1"/>
<stop offset="0.8125" stop-color="rgb(46.395874%, 60.955811%, 81.469727%)" stop-opacity="1"/>
<stop offset="0.816406" stop-color="rgb(46.16394%, 60.787964%, 81.390381%)" stop-opacity="1"/>
<stop offset="0.820313" stop-color="rgb(45.933533%, 60.621643%, 81.311035%)" stop-opacity="1"/>
<stop offset="0.824219" stop-color="rgb(45.701599%, 60.453796%, 81.230164%)" stop-opacity="1"/>
<stop offset="0.828125" stop-color="rgb(45.471191%, 60.287476%, 81.150818%)" stop-opacity="1"/>
<stop offset="0.832031" stop-color="rgb(45.239258%, 60.119629%, 81.071472%)" stop-opacity="1"/>
<stop offset="0.835938" stop-color="rgb(45.00885%, 59.953308%, 80.992126%)" stop-opacity="1"/>
<stop offset="0.839844" stop-color="rgb(44.776917%, 59.785461%, 80.911255%)" stop-opacity="1"/>
<stop offset="0.84375" stop-color="rgb(44.544983%, 59.619141%, 80.831909%)" stop-opacity="1"/>
<stop offset="0.847656" stop-color="rgb(44.313049%, 59.451294%, 80.752563%)" stop-opacity="1"/>
<stop offset="0.851563" stop-color="rgb(44.082642%, 59.284973%, 80.673218%)" stop-opacity="1"/>
<stop offset="0.855469" stop-color="rgb(43.850708%, 59.117126%, 80.593872%)" stop-opacity="1"/>
<stop offset="0.859375" stop-color="rgb(43.6203%, 58.950806%, 80.514526%)" stop-opacity="1"/>
<stop offset="0.863281" stop-color="rgb(43.388367%, 58.784485%, 80.433655%)" stop-opacity="1"/>
<stop offset="0.867188" stop-color="rgb(43.157959%, 58.618164%, 80.354309%)" stop-opacity="1"/>
<stop offset="0.871094" stop-color="rgb(42.926025%, 58.450317%, 80.274963%)" stop-opacity="1"/>
<stop offset="0.875" stop-color="rgb(42.695618%, 58.283997%, 80.195618%)" stop-opacity="1"/>
<stop offset="0.878906" stop-color="rgb(42.463684%, 58.11615%, 80.114746%)" stop-opacity="1"/>
<stop offset="0.882813" stop-color="rgb(42.233276%, 57.949829%, 80.0354%)" stop-opacity="1"/>
<stop offset="0.886719" stop-color="rgb(42.001343%, 57.781982%, 79.956055%)" stop-opacity="1"/>
<stop offset="0.890625" stop-color="rgb(41.769409%, 57.615662%, 79.876709%)" stop-opacity="1"/>
<stop offset="0.894531" stop-color="rgb(41.537476%, 57.447815%, 79.797363%)" stop-opacity="1"/>
<stop offset="0.898438" stop-color="rgb(41.307068%, 57.281494%, 79.718018%)" stop-opacity="1"/>
<stop offset="0.902344" stop-color="rgb(41.075134%, 57.113647%, 79.637146%)" stop-opacity="1"/>
<stop offset="0.90625" stop-color="rgb(40.844727%, 56.947327%, 79.5578%)" stop-opacity="1"/>
<stop offset="0.910156" stop-color="rgb(40.612793%, 56.77948%, 79.478455%)" stop-opacity="1"/>
<stop offset="0.914063" stop-color="rgb(40.382385%, 56.613159%, 79.399109%)" stop-opacity="1"/>
<stop offset="0.917969" stop-color="rgb(40.150452%, 56.446838%, 79.318237%)" stop-opacity="1"/>
<stop offset="0.921875" stop-color="rgb(39.920044%, 56.280518%, 79.238892%)" stop-opacity="1"/>
<stop offset="0.925781" stop-color="rgb(39.68811%, 56.112671%, 79.159546%)" stop-opacity="1"/>
<stop offset="0.929688" stop-color="rgb(39.456177%, 55.94635%, 79.0802%)" stop-opacity="1"/>
<stop offset="0.933594" stop-color="rgb(39.224243%, 55.778503%, 79.000854%)" stop-opacity="1"/>
<stop offset="0.9375" stop-color="rgb(38.993835%, 55.612183%, 78.921509%)" stop-opacity="1"/>
<stop offset="0.941406" stop-color="rgb(38.761902%, 55.444336%, 78.840637%)" stop-opacity="1"/>
<stop offset="0.945313" stop-color="rgb(38.531494%, 55.278015%, 78.761292%)" stop-opacity="1"/>
<stop offset="0.949219" stop-color="rgb(38.299561%, 55.110168%, 78.681946%)" stop-opacity="1"/>
<stop offset="0.953125" stop-color="rgb(38.069153%, 54.943848%, 78.6026%)" stop-opacity="1"/>
<stop offset="0.957031" stop-color="rgb(37.837219%, 54.776001%, 78.521729%)" stop-opacity="1"/>
<stop offset="0.960938" stop-color="rgb(37.606812%, 54.60968%, 78.442383%)" stop-opacity="1"/>
<stop offset="0.964844" stop-color="rgb(37.374878%, 54.441833%, 78.363037%)" stop-opacity="1"/>
<stop offset="0.96875" stop-color="rgb(37.14447%, 54.275513%, 78.283691%)" stop-opacity="1"/>
<stop offset="0.972656" stop-color="rgb(36.912537%, 54.109192%, 78.204346%)" stop-opacity="1"/>
<stop offset="0.976563" stop-color="rgb(36.680603%, 53.942871%, 78.125%)" stop-opacity="1"/>
<stop offset="0.980469" stop-color="rgb(36.448669%, 53.775024%, 78.044128%)" stop-opacity="1"/>
<stop offset="0.984375" stop-color="rgb(36.218262%, 53.608704%, 77.964783%)" stop-opacity="1"/>
<stop offset="0.988281" stop-color="rgb(35.986328%, 53.440857%, 77.885437%)" stop-opacity="1"/>
<stop offset="0.992188" stop-color="rgb(35.75592%, 53.274536%, 77.806091%)" stop-opacity="1"/>
<stop offset="0.996094" stop-color="rgb(35.523987%, 53.106689%, 77.72522%)" stop-opacity="1"/>
<stop offset="1" stop-color="rgb(35.293579%, 52.940369%, 77.645874%)" stop-opacity="1"/>
</linearGradient>
</defs>
<path fill-rule="evenodd" fill="rgb(20.776367%, 43.138123%, 77.34375%)" fill-opacity="1" d="M 1936.488281 0 C 3001.578125 0 3872.980469 871.421875 3872.980469 1936.488281 C 3872.980469 3001.578125 3001.578125 3872.980469 1936.488281 3872.980469 C 871.414062 3872.980469 0 3001.578125 0 1936.488281 C 0 871.421875 871.414062 0 1936.488281 0 "/>
<g clip-path="url(#clip-0)">
<g clip-path="url(#clip-1)">
<path fill-rule="nonzero" fill="url(#linear-pattern-0)" d="M 804.597656 693.148438 L 804.597656 3175.050781 L 3068.378906 3175.050781 L 3068.378906 693.148438 Z M 804.597656 693.148438 "/>
</g>
</g>
</svg>
