<?xml version="1.0" encoding="UTF-8"?>
<svg xmlns="http://www.w3.org/2000/svg" xmlns:xlink="http://www.w3.org/1999/xlink" width="2000" height="2000" viewBox="0 0 2000 2000">
<path fill-rule="evenodd" fill="rgb(95.701599%, 96.875%, 98.046875%)" fill-opacity="1" d="M 0 0.078125 L 1999.921875 0.078125 L 1999.921875 2000 L 0 2000 L 0 0.078125 "/>
<path fill-rule="evenodd" fill="rgb(95.701599%, 96.875%, 98.046875%)" fill-opacity="1" d="M 1908.238281 1915.15625 L 1889.179688 1915.15625 C 1888.300781 1915.15625 1887.589844 1915.871094 1887.589844 1916.746094 L 1887.589844 1935.800781 C 1887.589844 1936.679688 1888.300781 1937.394531 1889.179688 1937.394531 L 1908.238281 1937.394531 C 1909.109375 1937.394531 1909.828125 1936.679688 1909.828125 1935.800781 L 1909.828125 1916.746094 C 1909.828125 1915.871094 1909.109375 1915.15625 1908.238281 1915.15625 "/>
<path fill-rule="evenodd" fill="rgb(95.701599%, 96.875%, 98.046875%)" fill-opacity="1" d="M 1865.28125 1916.171875 L 1847.089844 1916.171875 C 1846.261719 1916.171875 1845.578125 1916.855469 1845.578125 1917.691406 L 1845.578125 1935.875 C 1845.578125 1936.710938 1846.261719 1937.394531 1847.089844 1937.394531 L 1865.28125 1937.394531 C 1866.109375 1937.394531 1866.800781 1936.710938 1866.800781 1935.875 L 1866.800781 1917.691406 C 1866.800781 1916.855469 1866.109375 1916.171875 1865.28125 1916.171875 "/>
<path fill-rule="evenodd" fill="rgb(95.701599%, 96.875%, 98.046875%)" fill-opacity="1" d="M 1822.320312 1917.1875 L 1805.011719 1917.1875 C 1804.210938 1917.1875 1803.558594 1917.839844 1803.558594 1918.636719 L 1803.558594 1935.949219 C 1803.558594 1936.742188 1804.210938 1937.394531 1805.011719 1937.394531 L 1822.320312 1937.394531 C 1823.121094 1937.394531 1823.769531 1936.742188 1823.769531 1935.949219 L 1823.769531 1918.636719 C 1823.769531 1917.839844 1823.121094 1917.1875 1822.320312 1917.1875 "/>
<path fill-rule="evenodd" fill="rgb(95.701599%, 96.875%, 98.046875%)" fill-opacity="1" d="M 1779.371094 1918.207031 L 1762.929688 1918.207031 C 1762.171875 1918.207031 1761.550781 1918.824219 1761.550781 1919.582031 L 1761.550781 1936.019531 C 1761.550781 1936.777344 1762.171875 1937.394531 1762.929688 1937.394531 L 1779.371094 1937.394531 C 1780.121094 1937.394531 1780.738281 1936.777344 1780.738281 1936.019531 L 1780.738281 1919.582031 C 1780.738281 1918.824219 1780.121094 1918.207031 1779.371094 1918.207031 "/>
<path fill-rule="evenodd" fill="rgb(95.701599%, 96.875%, 98.046875%)" fill-opacity="1" d="M 1736.410156 1919.222656 L 1720.839844 1919.222656 C 1720.128906 1919.222656 1719.539062 1919.808594 1719.539062 1920.523438 L 1719.539062 1936.09375 C 1719.539062 1936.808594 1720.128906 1937.394531 1720.839844 1937.394531 L 1736.410156 1937.394531 C 1737.128906 1937.394531 1737.710938 1936.808594 1737.710938 1936.09375 L 1737.710938 1920.523438 C 1737.710938 1919.808594 1737.128906 1919.222656 1736.410156 1919.222656 "/>
<path fill-rule="evenodd" fill="rgb(95.701599%, 96.875%, 98.046875%)" fill-opacity="1" d="M 1693.460938 1920.238281 L 1678.761719 1920.238281 C 1678.078125 1920.238281 1677.53125 1920.792969 1677.53125 1921.46875 L 1677.53125 1936.167969 C 1677.53125 1936.84375 1678.078125 1937.394531 1678.761719 1937.394531 L 1693.460938 1937.394531 C 1694.128906 1937.394531 1694.679688 1936.84375 1694.679688 1936.167969 L 1694.679688 1921.46875 C 1694.679688 1920.792969 1694.128906 1920.238281 1693.460938 1920.238281 "/>
<path fill-rule="evenodd" fill="rgb(95.701599%, 96.875%, 98.046875%)" fill-opacity="1" d="M 1650.5 1921.257812 L 1636.671875 1921.257812 C 1636.039062 1921.257812 1635.519531 1921.777344 1635.519531 1922.414062 L 1635.519531 1936.238281 C 1635.519531 1936.875 1636.039062 1937.394531 1636.671875 1937.394531 L 1650.5 1937.394531 C 1651.140625 1937.394531 1651.648438 1936.875 1651.648438 1936.238281 L 1651.648438 1922.414062 C 1651.648438 1921.777344 1651.140625 1921.257812 1650.5 1921.257812 "/>
<path fill-rule="evenodd" fill="rgb(95.701599%, 96.875%, 98.046875%)" fill-opacity="1" d="M 1607.539062 1922.273438 L 1594.589844 1922.273438 C 1593.988281 1922.273438 1593.511719 1922.761719 1593.511719 1923.355469 L 1593.511719 1936.3125 C 1593.511719 1936.90625 1593.988281 1937.394531 1594.589844 1937.394531 L 1607.539062 1937.394531 C 1608.140625 1937.394531 1608.628906 1936.90625 1608.628906 1936.3125 L 1608.628906 1923.355469 C 1608.628906 1922.761719 1608.140625 1922.273438 1607.539062 1922.273438 "/>
<path fill-rule="evenodd" fill="rgb(95.701599%, 96.875%, 98.046875%)" fill-opacity="1" d="M 1564.589844 1923.292969 L 1552.5 1923.292969 C 1551.949219 1923.292969 1551.488281 1923.746094 1551.488281 1924.300781 L 1551.488281 1936.386719 C 1551.488281 1936.941406 1551.949219 1937.394531 1552.5 1937.394531 L 1564.589844 1937.394531 C 1565.140625 1937.394531 1565.601562 1936.941406 1565.601562 1936.386719 L 1565.601562 1924.300781 C 1565.601562 1923.746094 1565.140625 1923.292969 1564.589844 1923.292969 "/>
<path fill-rule="evenodd" fill="rgb(49.804688%, 38.035583%, 38.426208%)" fill-opacity="1" d="M 999.960938 69.859375 C 1511.558594 69.859375 1930.140625 488.441406 1930.140625 1000.039062 C 1930.140625 1511.636719 1511.558594 1930.21875 999.960938 1930.21875 C 488.363281 1930.21875 69.78125 1511.636719 69.78125 1000.039062 C 69.78125 488.441406 488.363281 69.859375 999.960938 69.859375 "/>
<path fill-rule="evenodd" fill="rgb(94.53125%, 94.53125%, 94.53125%)" fill-opacity="1" d="M 467.503906 801.519531 L 945.996094 801.519531 L 945.996094 1049.753906 L 1053.929688 1049.753906 L 1053.929688 801.519531 L 1532.421875 801.519531 C 1556.160156 801.519531 1575.589844 820.941406 1575.589844 844.691406 L 1575.589844 1578.613281 C 1575.589844 1602.359375 1556.160156 1621.785156 1532.421875 1621.785156 L 467.503906 1621.785156 C 443.757812 1621.785156 424.332031 1602.359375 424.332031 1578.613281 L 424.332031 844.691406 C 424.332031 820.941406 443.757812 801.519531 467.503906 801.519531 "/>
<path fill-rule="evenodd" fill="rgb(71.289062%, 71.289062%, 71.289062%)" fill-opacity="1" d="M 802.089844 920.238281 L 945.996094 920.238281 L 945.996094 1049.753906 L 802.089844 1049.753906 Z M 1053.929688 920.238281 L 1471.261719 920.238281 L 1471.261719 1269.214844 L 1300.371094 1269.214844 L 1300.371094 1378.941406 L 1167.25 1378.941406 L 1167.25 1621.785156 L 998.160156 1621.785156 L 998.160156 1267.414062 L 1131.28125 1267.414062 L 1131.28125 1159.484375 L 1215.820312 1159.484375 L 1215.820312 1049.753906 L 1053.929688 1049.753906 L 1053.929688 920.238281 "/>
<path fill-rule="evenodd" fill="rgb(91.014099%, 62.304688%, 62.304688%)" fill-opacity="1" d="M 525.066406 920.238281 L 719.339844 920.238281 L 719.339844 1049.753906 L 525.066406 1049.753906 L 525.066406 920.238281 "/>
<path fill-rule="evenodd" fill="rgb(92.96875%, 82.03125%, 46.263123%)" fill-opacity="1" d="M 525.066406 1136.101562 L 665.378906 1136.101562 L 665.378906 1265.617188 L 525.066406 1265.617188 L 525.066406 1136.101562 "/>
<path fill-rule="evenodd" fill="rgb(92.96875%, 82.03125%, 46.263123%)" fill-opacity="1" d="M 525.066406 1337.570312 L 665.378906 1337.570312 L 665.378906 1467.085938 L 525.066406 1467.085938 L 525.066406 1337.570312 "/>
<path fill-rule="evenodd" fill="rgb(94.921875%, 92.96875%, 47.459412%)" fill-opacity="1" d="M 945.996094 1049.753906 L 1053.929688 1049.753906 L 1053.929688 726.691406 L 945.996094 726.691406 L 945.996094 1049.753906 "/>
<path fill-rule="evenodd" fill="rgb(92.96875%, 82.03125%, 46.263123%)" fill-opacity="1" d="M 999.960938 202.871094 C 1125.589844 202.871094 1227.429688 304.710938 1227.429688 430.328125 C 1227.429688 602.191406 1116.289062 539.609375 1116.289062 726.691406 L 883.628906 726.691406 C 883.628906 539.609375 772.496094 602.191406 772.496094 430.328125 C 772.496094 304.710938 874.335938 202.871094 999.960938 202.871094 "/>
<path fill-rule="evenodd" fill="rgb(91.014099%, 62.304688%, 62.304688%)" fill-opacity="1" d="M 1068.929688 213.519531 C 1160.828125 242.730469 1227.429688 328.75 1227.429688 430.328125 C 1227.429688 477.691406 1218.980469 507.21875 1206.75 529.109375 C 1112.011719 505.988281 1041.691406 420.570312 1041.691406 318.710938 C 1041.691406 280.53125 1051.589844 244.671875 1068.929688 213.519531 Z M 793.167969 529.109375 C 780.941406 507.230469 772.496094 477.691406 772.496094 430.328125 C 772.496094 328.75 839.085938 242.730469 930.996094 213.519531 C 948.335938 244.671875 958.226562 280.53125 958.226562 318.710938 C 958.226562 420.570312 887.90625 505.988281 793.167969 529.109375 "/>
<path fill="none" stroke-width="339.999" stroke-linecap="round" stroke-linejoin="round" stroke="rgb(24.31488%, 27.050781%, 30.589294%)" stroke-opacity="1" stroke-miterlimit="22.9256" d="M 4675.039062 11984.804688 L 9459.960938 11984.804688 L 9459.960938 9502.460938 L 10539.296875 9502.460938 L 10539.296875 11984.804688 L 15324.21875 11984.804688 C 15561.601562 11984.804688 15755.898438 11790.585938 15755.898438 11553.085938 L 15755.898438 4213.867188 C 15755.898438 3976.40625 15561.601562 3782.148438 15324.21875 3782.148438 L 4675.039062 3782.148438 C 4437.578125 3782.148438 4243.320312 3976.40625 4243.320312 4213.867188 L 4243.320312 11553.085938 C 4243.320312 11790.585938 4437.578125 11984.804688 4675.039062 11984.804688 Z M 4675.039062 11984.804688 " transform="matrix(0.1, 0, 0, -0.1, 0, 2000)"/>
<path fill="none" stroke-width="339.999" stroke-linecap="round" stroke-linejoin="round" stroke="rgb(24.31488%, 27.050781%, 30.589294%)" stroke-opacity="1" stroke-miterlimit="22.9256" d="M 8020.898438 10797.617188 L 9459.960938 10797.617188 L 9459.960938 9502.460938 L 8020.898438 9502.460938 Z M 10539.296875 10797.617188 L 14712.617188 10797.617188 L 14712.617188 7307.851562 L 13003.710938 7307.851562 L 13003.710938 6210.585938 L 11672.5 6210.585938 L 11672.5 3782.148438 L 9981.601562 3782.148438 L 9981.601562 7325.859375 L 11312.8125 7325.859375 L 11312.8125 8405.15625 L 12158.203125 8405.15625 L 12158.203125 9502.460938 L 10539.296875 9502.460938 Z M 10539.296875 10797.617188 " transform="matrix(0.1, 0, 0, -0.1, 0, 2000)"/>
<path fill="none" stroke-width="339.999" stroke-linecap="round" stroke-linejoin="round" stroke="rgb(24.31488%, 27.050781%, 30.589294%)" stroke-opacity="1" stroke-miterlimit="22.9256" d="M 5250.664062 10797.617188 L 7193.398438 10797.617188 L 7193.398438 9502.460938 L 5250.664062 9502.460938 Z M 5250.664062 10797.617188 " transform="matrix(0.1, 0, 0, -0.1, 0, 2000)"/>
<path fill="none" stroke-width="339.999" stroke-linecap="round" stroke-linejoin="round" stroke="rgb(24.31488%, 27.050781%, 30.589294%)" stroke-opacity="1" stroke-miterlimit="22.9256" d="M 5250.664062 8638.984375 L 6653.789062 8638.984375 L 6653.789062 7343.828125 L 5250.664062 7343.828125 Z M 5250.664062 8638.984375 " transform="matrix(0.1, 0, 0, -0.1, 0, 2000)"/>
<path fill="none" stroke-width="339.999" stroke-linecap="round" stroke-linejoin="round" stroke="rgb(24.31488%, 27.050781%, 30.589294%)" stroke-opacity="1" stroke-miterlimit="22.9256" d="M 5250.664062 6624.296875 L 6653.789062 6624.296875 L 6653.789062 5329.140625 L 5250.664062 5329.140625 Z M 5250.664062 6624.296875 " transform="matrix(0.1, 0, 0, -0.1, 0, 2000)"/>
<path fill="none" stroke-width="339.999" stroke-linecap="round" stroke-linejoin="round" stroke="rgb(24.31488%, 27.050781%, 30.589294%)" stroke-opacity="1" stroke-miterlimit="22.9256" d="M 9459.960938 9502.460938 L 10539.296875 9502.460938 L 10539.296875 12733.085938 L 9459.960938 12733.085938 Z M 9459.960938 9502.460938 " transform="matrix(0.1, 0, 0, -0.1, 0, 2000)"/>
<path fill="none" stroke-width="339.998" stroke-linecap="round" stroke-linejoin="round" stroke="rgb(24.31488%, 27.050781%, 30.589294%)" stroke-opacity="1" stroke-miterlimit="22.9256" d="M 9999.609375 17971.289062 C 11255.898438 17971.289062 12274.296875 16952.890625 12274.296875 15696.71875 C 12274.296875 13978.085938 11162.890625 14603.90625 11162.890625 12733.085938 L 8836.289062 12733.085938 C 8836.289062 14603.90625 7724.960938 13978.085938 7724.960938 15696.71875 C 7724.960938 16952.890625 8743.359375 17971.289062 9999.609375 17971.289062 Z M 9999.609375 17971.289062 " transform="matrix(0.1, 0, 0, -0.1, 0, 2000)"/>
<path fill="none" stroke-width="339.999" stroke-linecap="round" stroke-linejoin="round" stroke="rgb(24.31488%, 27.050781%, 30.589294%)" stroke-opacity="1" stroke-miterlimit="22.9256" d="M 10689.296875 17864.804688 C 11608.28125 17572.695312 12274.296875 16712.5 12274.296875 15696.71875 C 12274.296875 15223.085938 12189.804688 14927.8125 12067.5 14708.90625 C 11120.117188 14940.117188 10416.914062 15794.296875 10416.914062 16812.890625 C 10416.914062 17194.6875 10515.898438 17553.28125 10689.296875 17864.804688 Z M 7931.679688 14708.90625 C 7809.414062 14927.695312 7724.960938 15223.085938 7724.960938 15696.71875 C 7724.960938 16712.5 8390.859375 17572.695312 9309.960938 17864.804688 C 9483.359375 17553.28125 9582.265625 17194.6875 9582.265625 16812.890625 C 9582.265625 15794.296875 8879.0625 14940.117188 7931.679688 14708.90625 Z M 7931.679688 14708.90625 " transform="matrix(0.1, 0, 0, -0.1, 0, 2000)"/>
</svg>
