<?xml version="1.0" encoding="UTF-8"?>
<svg xmlns="http://www.w3.org/2000/svg" xmlns:xlink="http://www.w3.org/1999/xlink" width="3872.98" height="3872.98" viewBox="0 0 3872.98 3872.98">
<defs>
<clipPath id="clip-0">
<path clip-rule="nonzero" d="M 697 709 L 3176 709 L 3176 3164 L 697 3164 Z M 697 709 "/>
</clipPath>
<clipPath id="clip-1">
<path clip-rule="evenodd" d="M 1413.800781 1721.589844 C 1290.929688 1753.699219 1190.828125 1808.5 1128.300781 1880.871094 C 1127.609375 1881.679688 1126.890625 1882.441406 1126.109375 1883.171875 C 1119.390625 1889.628906 1112.699219 1895.648438 1106.050781 1901.28125 L 1413.800781 1901.28125 Z M 1845.789062 1700.730469 C 1831.5 1698.550781 1816.75 1696.660156 1801.5 1695.101562 C 1762.289062 1691.101562 1722.199219 1689.070312 1682.351562 1689.070312 C 1611.851562 1689.070312 1544.371094 1695.101562 1481.570312 1706.589844 L 1481.570312 1901.28125 L 1845.789062 1901.28125 Z M 2277.78125 1901.28125 C 2258.078125 1888.898438 2238.5 1875.628906 2218.601562 1862.171875 C 2137.699219 1807.371094 2048.199219 1746.738281 1913.558594 1714.058594 L 1913.558594 1901.28125 Z M 3067.550781 2180.941406 C 3039.910156 2112.800781 2992 2049.351562 2940.160156 2026.179688 C 2939.941406 2029.351562 2939.839844 2032.519531 2939.839844 2035.71875 C 2939.839844 2108.210938 2995.058594 2168.648438 3067.550781 2180.941406 Z M 857.519531 1982.511719 C 883.164062 2032.601562 896.570312 2088.691406 896.570312 2147.191406 C 896.570312 2201.960938 866.332031 2288.53125 844.171875 2338.488281 C 875.117188 2370.761719 917.539062 2395.730469 971.871094 2414.191406 C 993.058594 2288.261719 1102.859375 2192.03125 1234.710938 2192.03125 C 1370.199219 2192.03125 1482.398438 2293.609375 1499.101562 2424.628906 C 1672.421875 2424.550781 1845.429688 2423.851562 2018.300781 2423.140625 C 2135.429688 2422.640625 2252.5 2422.128906 2369.589844 2421.859375 C 2387.699219 2287.710938 2503.609375 2183.480469 2642.210938 2183.480469 C 2781.230469 2183.480469 2897.230469 2288.078125 2914.960938 2422.660156 C 2973.960938 2423.078125 3033.019531 2423.570312 3092.078125 2424.261719 L 3092.078125 2293.101562 C 3092.078125 2279.609375 3090.699219 2265.410156 3088.121094 2250.851562 C 2968.390625 2247.441406 2872.078125 2152.230469 2872.078125 2035.699219 C 2872.078125 2028.308594 2872.46875 2020.960938 2873.238281 2013.648438 L 2451.5 1969.488281 L 2447.800781 1969.050781 L 982.269531 1969.050781 C 940.597656 1980.789062 903.703125 1981.5 874.171875 1982.078125 C 868.085938 1982.191406 862.5625 1982.328125 857.519531 1982.511719 Z M 799.269531 2268.71875 C 815.015625 2225.710938 828.757812 2176.351562 828.757812 2147.191406 C 828.757812 2101.980469 819.007812 2058.660156 800.28125 2019.679688 L 800.214844 2019.960938 C 774.632812 2122.921875 773.835938 2204.910156 799.269531 2268.71875 Z M 1677.949219 2115.648438 C 1696.679688 2115.648438 1711.839844 2100.46875 1711.839844 2081.75 C 1711.839844 2063.039062 1696.671875 2047.871094 1677.949219 2047.871094 L 1571.929688 2047.871094 C 1553.210938 2047.871094 1538.039062 2063.039062 1538.039062 2081.75 C 1538.039062 2100.46875 1553.210938 2115.648438 1571.929688 2115.648438 Z M 2642.230469 2349.109375 C 2581.890625 2349.109375 2532.78125 2398.21875 2532.78125 2458.558594 C 2532.78125 2518.871094 2581.890625 2567.980469 2642.230469 2567.980469 C 2702.550781 2567.980469 2751.660156 2518.890625 2751.660156 2458.558594 C 2751.660156 2398.21875 2702.570312 2349.109375 2642.230469 2349.109375 Z M 2888.511719 1447.960938 C 2895.929688 1447.960938 2903.378906 1445.121094 2909.03125 1439.449219 C 2920.398438 1428.109375 2920.398438 1409.710938 2909.03125 1398.371094 L 2861.601562 1350.929688 C 2850.25 1339.570312 2831.851562 1339.570312 2820.5 1350.929688 C 2809.140625 1362.269531 2809.140625 1380.660156 2820.5 1392 L 2867.941406 1439.449219 C 2873.628906 1445.121094 2881.078125 1447.960938 2888.511719 1447.960938 Z M 2788.359375 1347.820312 C 2780.929688 1347.820312 2773.480469 1344.96875 2767.789062 1339.300781 L 2720.351562 1291.851562 C 2708.988281 1280.511719 2708.988281 1262.121094 2720.351562 1250.78125 C 2731.71875 1239.421875 2750.101562 1239.421875 2761.449219 1250.78125 L 2808.878906 1298.21875 C 2820.25 1309.558594 2820.25 1327.960938 2808.878906 1339.300781 C 2803.230469 1344.980469 2795.78125 1347.820312 2788.359375 1347.820312 Z M 2393.058594 1447.960938 C 2400.480469 1447.960938 2407.929688 1445.121094 2413.601562 1439.449219 L 2461.039062 1392 C 2472.398438 1380.660156 2472.398438 1362.269531 2461.039062 1350.929688 C 2449.710938 1339.570312 2431.308594 1339.570312 2419.960938 1350.929688 L 2372.511719 1398.371094 C 2361.140625 1409.710938 2361.140625 1428.109375 2372.511719 1439.449219 C 2378.199219 1445.121094 2385.628906 1447.960938 2393.058594 1447.960938 Z M 2493.210938 1347.820312 C 2485.78125 1347.820312 2478.328125 1344.96875 2472.660156 1339.300781 C 2461.289062 1327.960938 2461.289062 1309.558594 2472.660156 1298.21875 L 2520.089844 1250.78125 C 2531.460938 1239.421875 2549.859375 1239.421875 2561.191406 1250.78125 C 2572.550781 1262.121094 2572.550781 1280.511719 2561.191406 1291.851562 L 2513.75 1339.300781 C 2508.078125 1344.980469 2500.628906 1347.820312 2493.210938 1347.820312 Z M 2640.769531 1550.578125 C 2624.738281 1550.578125 2611.710938 1537.570312 2611.710938 1521.53125 L 2611.710938 1454.449219 C 2611.710938 1438.410156 2624.761719 1425.398438 2640.769531 1425.398438 C 2656.789062 1425.398438 2669.828125 1438.410156 2669.828125 1454.449219 L 2669.828125 1521.53125 C 2669.828125 1537.570312 2656.808594 1550.578125 2640.769531 1550.578125 Z M 2640.769531 1408.949219 C 2624.738281 1408.949219 2611.710938 1395.941406 2611.710938 1379.910156 L 2611.710938 1312.808594 C 2611.710938 1296.78125 2624.761719 1283.769531 2640.769531 1283.769531 C 2656.789062 1283.769531 2669.828125 1296.78125 2669.828125 1312.808594 L 2669.828125 1379.910156 C 2669.828125 1395.941406 2656.808594 1408.949219 2640.769531 1408.949219 Z M 2640.769531 1267.328125 C 2624.738281 1267.328125 2611.710938 1254.308594 2611.710938 1238.28125 L 2611.710938 1171.191406 C 2611.710938 1155.148438 2624.761719 1142.140625 2640.769531 1142.140625 C 2656.789062 1142.140625 2669.828125 1155.148438 2669.828125 1171.191406 L 2669.828125 1238.28125 C 2669.828125 1254.308594 2656.808594 1267.328125 2640.769531 1267.328125 Z M 1457.558594 1447.960938 C 1465 1447.960938 1472.441406 1445.121094 1478.121094 1439.46875 C 1489.480469 1428.109375 1489.480469 1409.738281 1478.121094 1398.371094 L 1430.671875 1350.929688 C 1419.308594 1339.589844 1400.941406 1339.570312 1389.578125 1350.929688 C 1378.21875 1362.289062 1378.21875 1380.660156 1389.578125 1392.03125 L 1437.019531 1439.46875 C 1442.691406 1445.121094 1450.109375 1447.960938 1457.558594 1447.960938 Z M 1357.421875 1347.820312 C 1349.980469 1347.820312 1342.558594 1344.96875 1336.890625 1339.300781 L 1289.449219 1291.851562 C 1278.089844 1280.511719 1278.089844 1262.121094 1289.449219 1250.78125 C 1300.800781 1239.421875 1319.179688 1239.421875 1330.519531 1250.78125 L 1377.96875 1298.21875 C 1389.320312 1309.558594 1389.320312 1327.960938 1377.96875 1339.300781 C 1372.289062 1344.980469 1364.871094 1347.820312 1357.421875 1347.820312 Z M 962.121094 1447.960938 C 969.554688 1447.960938 976.980469 1445.121094 982.65625 1439.449219 L 1030.101562 1392 C 1041.46875 1380.660156 1041.46875 1362.269531 1030.101562 1350.929688 C 1018.761719 1339.570312 1000.378906 1339.570312 989.039062 1350.929688 L 941.582031 1398.371094 C 930.226562 1409.710938 930.226562 1428.109375 941.582031 1439.449219 C 947.257812 1445.121094 954.683594 1447.960938 962.121094 1447.960938 Z M 1062.269531 1347.820312 C 1054.820312 1347.820312 1047.410156 1344.96875 1041.730469 1339.300781 C 1030.378906 1327.960938 1030.378906 1309.558594 1041.730469 1298.21875 L 1089.179688 1250.78125 C 1100.539062 1239.421875 1118.910156 1239.421875 1130.25 1250.78125 C 1141.621094 1262.121094 1141.621094 1280.511719 1130.25 1291.851562 L 1082.808594 1339.300781 C 1077.121094 1344.980469 1069.699219 1347.820312 1062.269531 1347.820312 Z M 1209.839844 1550.578125 C 1193.808594 1550.578125 1180.800781 1537.570312 1180.800781 1521.53125 L 1180.800781 1454.449219 C 1180.800781 1438.410156 1193.808594 1425.398438 1209.839844 1425.398438 C 1225.878906 1425.398438 1238.890625 1438.410156 1238.890625 1454.449219 L 1238.890625 1521.53125 C 1238.890625 1537.570312 1225.890625 1550.578125 1209.839844 1550.578125 Z M 1209.839844 1408.949219 C 1193.808594 1408.949219 1180.800781 1395.941406 1180.800781 1379.910156 L 1180.800781 1312.808594 C 1180.800781 1296.78125 1193.808594 1283.769531 1209.839844 1283.769531 C 1225.878906 1283.769531 1238.890625 1296.78125 1238.890625 1312.808594 L 1238.890625 1379.910156 C 1238.890625 1395.941406 1225.890625 1408.949219 1209.839844 1408.949219 Z M 1209.839844 1267.328125 C 1193.808594 1267.328125 1180.800781 1254.308594 1180.800781 1238.28125 L 1180.800781 1171.191406 C 1180.800781 1155.148438 1193.808594 1142.140625 1209.839844 1142.140625 C 1225.878906 1142.140625 1238.890625 1155.148438 1238.890625 1171.191406 L 1238.890625 1238.28125 C 1238.890625 1254.308594 1225.890625 1267.328125 1209.839844 1267.328125 Z M 1495.5 777.171875 L 946.546875 777.171875 C 963.300781 913.75 1080 1019.839844 1221.019531 1019.839844 C 1362.050781 1019.839844 1478.738281 913.738281 1495.5 777.171875 Z M 2926.429688 777.171875 L 2377.46875 777.171875 C 2394.21875 913.75 2510.910156 1019.839844 2651.941406 1019.839844 C 2792.96875 1019.839844 2909.660156 913.738281 2926.429688 777.171875 Z M 3141.949219 777.171875 L 2984.890625 777.171875 C 2967.890625 945.851562 2825.058594 1077.929688 2651.960938 1077.929688 C 2478.859375 1077.929688 2336.050781 945.851562 2319.011719 777.171875 L 1553.96875 777.171875 C 1536.949219 945.851562 1394.121094 1077.929688 1221.019531 1077.929688 C 1047.929688 1077.929688 905.121094 945.851562 888.082031 777.171875 L 731.03125 777.171875 C 712.316406 777.171875 697.136719 762 697.136719 743.28125 C 697.136719 724.570312 712.316406 709.390625 731.03125 709.390625 L 3141.949219 709.390625 C 3160.671875 709.390625 3175.839844 724.570312 3175.839844 743.28125 C 3175.839844 762 3160.671875 777.171875 3141.949219 777.171875 Z M 1232.851562 2575.429688 L 1236.621094 2575.429688 C 1296.089844 2574.421875 1344.148438 2525.730469 1344.148438 2466.019531 C 1344.148438 2405.679688 1295.070312 2356.589844 1234.730469 2356.589844 C 1174.398438 2356.589844 1125.308594 2405.679688 1125.308594 2466.019531 C 1125.308594 2525.730469 1173.378906 2574.421875 1232.851562 2575.429688 Z M 2632.261719 3095.839844 L 2632.261719 2882.058594 L 2957.851562 2882.058594 L 2957.851562 3095.839844 Z M 1773.710938 3095.839844 L 1773.710938 2882.058594 L 2099.28125 2882.058594 L 2099.28125 3095.839844 Z M 915.15625 3095.839844 L 915.15625 2882.058594 L 1240.730469 2882.058594 L 1240.730469 3095.839844 Z M 880.101562 2814.300781 L 764.921875 2814.300781 L 764.921875 2643.210938 L 3108.070312 2643.230469 L 3108.070312 2814.300781 L 2992.910156 2814.300781 L 2991.730469 2814.28125 L 2598.398438 2814.28125 L 2597.21875 2814.300781 L 2134.328125 2814.300781 L 2133.171875 2814.28125 L 1739.820312 2814.28125 L 1738.648438 2814.300781 L 1275.789062 2814.300781 L 1274.609375 2814.28125 L 881.265625 2814.28125 Z M 1274.609375 3163.601562 C 1293.320312 3163.601562 1308.511719 3148.410156 1308.511719 3129.699219 L 1308.511719 2882.058594 L 1705.921875 2882.058594 L 1705.921875 3129.699219 C 1705.921875 3148.410156 1721.101562 3163.601562 1739.820312 3163.601562 L 2133.171875 3163.601562 C 2151.878906 3163.601562 2167.070312 3148.410156 2167.070312 3129.699219 L 2167.070312 2882.058594 L 2564.5 2882.058594 L 2564.5 3129.699219 C 2564.5 3148.410156 2579.679688 3163.601562 2598.398438 3163.601562 L 2991.730469 3163.601562 C 3010.441406 3163.601562 3025.609375 3148.410156 3025.628906 3129.699219 L 3025.628906 2882.058594 L 3141.949219 2882.058594 C 3160.671875 2882.058594 3175.820312 2866.878906 3175.839844 2848.160156 L 3175.839844 2609.308594 C 3175.839844 2590.601562 3160.671875 2575.429688 3141.949219 2575.429688 L 2775.300781 2575.429688 C 2802.761719 2544.210938 2819.421875 2503.289062 2819.398438 2458.558594 C 2819.398438 2360.828125 2739.941406 2281.339844 2642.230469 2281.339844 C 2544.5 2281.339844 2465.039062 2360.828125 2465.039062 2458.558594 C 2465.039062 2503.289062 2481.71875 2544.210938 2509.160156 2575.429688 L 1374.050781 2575.429688 C 1397.769531 2545.269531 1411.949219 2507.269531 1411.949219 2466.019531 C 1411.949219 2368.308594 1332.441406 2288.828125 1234.730469 2288.828125 C 1137.019531 2288.828125 1057.519531 2368.308594 1057.519531 2466.019531 C 1057.519531 2507.269531 1071.699219 2545.269531 1095.429688 2575.429688 L 731.03125 2575.429688 C 712.316406 2575.429688 697.136719 2590.601562 697.136719 2609.308594 L 697.136719 2848.160156 C 697.136719 2866.878906 712.316406 2882.058594 731.03125 2882.058594 L 847.371094 2882.058594 L 847.371094 3129.699219 C 847.371094 3148.410156 862.550781 3163.601562 881.265625 3163.601562 Z M 781.460938 2368.648438 C 778.683594 2366.128906 776.378906 2363.191406 774.613281 2359.980469 C 710.238281 2274.761719 696.683594 2155.679688 734.457031 2003.609375 C 756.085938 1916.578125 818.140625 1915.378906 872.894531 1914.339844 C 928.523438 1913.269531 997.714844 1911.941406 1078.128906 1835.320312 C 1156.710938 1745.121094 1284.621094 1679.410156 1439.660156 1646.070312 C 1440.339844 1645.898438 1441.039062 1645.75 1441.738281 1645.628906 C 1516.511719 1629.71875 1597.550781 1621.300781 1682.390625 1621.300781 C 1724.53125 1621.300781 1766.941406 1623.441406 1808.429688 1627.679688 C 1835.058594 1630.390625 1860.351562 1634.078125 1884.421875 1638.570312 C 1885.46875 1638.71875 1886.519531 1638.929688 1887.539062 1639.160156 C 2058.269531 1671.710938 2167.03125 1745.351562 2256.660156 1806.050781 C 2327.988281 1854.378906 2384.679688 1892.78125 2453.710938 1901.5 L 2455.089844 1901.671875 L 2458.609375 1902.070312 L 2915.609375 1949.949219 L 2916.539062 1950.058594 C 2917.460938 1950.140625 2918.390625 1950.238281 2919.300781 1950.398438 C 3029.488281 1964.5 3115.460938 2090.601562 3146.898438 2205.441406 C 3147.289062 2206.601562 3147.609375 2207.789062 3147.878906 2209.011719 C 3155.699219 2238.578125 3159.859375 2267.320312 3159.859375 2293.101562 L 3159.859375 2458.558594 C 3159.859375 2467.621094 3156.230469 2476.300781 3149.808594 2482.671875 C 3143.371094 2489.011719 3134.621094 2492.628906 3125.558594 2492.421875 C 3044.699219 2491.390625 2963.929688 2490.679688 2883.210938 2490.230469 C 2864.691406 2490.128906 2849.699219 2475.160156 2849.519531 2456.640625 C 2848.5 2343.390625 2755.519531 2251.238281 2642.230469 2251.238281 C 2529.25 2251.238281 2436.300781 2343.140625 2434.980469 2456.050781 C 2434.761719 2474.609375 2419.710938 2489.5 2401.171875 2489.539062 C 2273.660156 2489.820312 2146.148438 2490.351562 2018.621094 2490.878906 C 1835.078125 2491.648438 1651.429688 2492.421875 1467.371094 2492.421875 C 1448.660156 2492.421875 1433.488281 2477.230469 1433.488281 2458.519531 C 1433.488281 2348.929688 1344.328125 2259.75 1234.730469 2259.75 C 1125.148438 2259.75 1035.988281 2348.929688 1035.988281 2458.519531 C 1035.988281 2469.03125 1031.128906 2478.898438 1022.808594 2485.328125 C 1016.800781 2489.980469 1009.511719 2492.441406 1002.078125 2492.441406 C 999.210938 2492.441406 996.355469 2492.078125 993.550781 2491.351562 C 898.886719 2466.691406 828.15625 2425.699219 781.460938 2368.648438 "/>
</clipPath>
<linearGradient id="linear-pattern-0" gradientUnits="userSpaceOnUse" x1="0.0938018" y1="0" x2="0.905969" y2="0" gradientTransform="matrix(3052.52, 0, 0, 3052.52, 410.353, 1936.5)">
<stop offset="0" stop-color="rgb(89.984131%, 92.816162%, 96.873474%)" stop-opacity="1"/>
<stop offset="0.0078125" stop-color="rgb(89.790344%, 92.678833%, 96.806335%)" stop-opacity="1"/>
<stop offset="0.015625" stop-color="rgb(89.404297%, 92.404175%, 96.67511%)" stop-opacity="1"/>
<stop offset="0.0234375" stop-color="rgb(89.019775%, 92.131042%, 96.542358%)" stop-opacity="1"/>
<stop offset="0.03125" stop-color="rgb(88.633728%, 91.856384%, 96.411133%)" stop-opacity="1"/>
<stop offset="0.0390625" stop-color="rgb(88.247681%, 91.583252%, 96.279907%)" stop-opacity="1"/>
<stop offset="0.046875" stop-color="rgb(87.861633%, 91.31012%, 96.147156%)" stop-opacity="1"/>
<stop offset="0.0546875" stop-color="rgb(87.477112%, 91.035461%, 96.01593%)" stop-opacity="1"/>
<stop offset="0.0625" stop-color="rgb(87.091064%, 90.762329%, 95.883179%)" stop-opacity="1"/>
<stop offset="0.0703125" stop-color="rgb(86.705017%, 90.489197%, 95.751953%)" stop-opacity="1"/>
<stop offset="0.078125" stop-color="rgb(86.31897%, 90.214539%, 95.620728%)" stop-opacity="1"/>
<stop offset="0.0859375" stop-color="rgb(85.932922%, 89.941406%, 95.487976%)" stop-opacity="1"/>
<stop offset="0.09375" stop-color="rgb(85.548401%, 89.666748%, 95.35675%)" stop-opacity="1"/>
<stop offset="0.101562" stop-color="rgb(85.162354%, 89.393616%, 95.223999%)" stop-opacity="1"/>
<stop offset="0.109375" stop-color="rgb(84.776306%, 89.120483%, 95.092773%)" stop-opacity="1"/>
<stop offset="0.117188" stop-color="rgb(84.390259%, 88.845825%, 94.960022%)" stop-opacity="1"/>
<stop offset="0.125" stop-color="rgb(84.005737%, 88.572693%, 94.828796%)" stop-opacity="1"/>
<stop offset="0.132812" stop-color="rgb(83.61969%, 88.299561%, 94.697571%)" stop-opacity="1"/>
<stop offset="0.140625" stop-color="rgb(83.233643%, 88.024902%, 94.564819%)" stop-opacity="1"/>
<stop offset="0.148438" stop-color="rgb(82.847595%, 87.75177%, 94.433594%)" stop-opacity="1"/>
<stop offset="0.15625" stop-color="rgb(82.463074%, 87.477112%, 94.300842%)" stop-opacity="1"/>
<stop offset="0.164062" stop-color="rgb(82.077026%, 87.203979%, 94.169617%)" stop-opacity="1"/>
<stop offset="0.171875" stop-color="rgb(81.690979%, 86.930847%, 94.036865%)" stop-opacity="1"/>
<stop offset="0.179688" stop-color="rgb(81.304932%, 86.656189%, 93.90564%)" stop-opacity="1"/>
<stop offset="0.1875" stop-color="rgb(80.92041%, 86.383057%, 93.774414%)" stop-opacity="1"/>
<stop offset="0.195312" stop-color="rgb(80.534363%, 86.109924%, 93.641663%)" stop-opacity="1"/>
<stop offset="0.203125" stop-color="rgb(80.148315%, 85.835266%, 93.510437%)" stop-opacity="1"/>
<stop offset="0.210938" stop-color="rgb(79.762268%, 85.562134%, 93.377686%)" stop-opacity="1"/>
<stop offset="0.21875" stop-color="rgb(79.377747%, 85.287476%, 93.24646%)" stop-opacity="1"/>
<stop offset="0.226562" stop-color="rgb(78.991699%, 85.014343%, 93.113708%)" stop-opacity="1"/>
<stop offset="0.234375" stop-color="rgb(78.605652%, 84.741211%, 92.982483%)" stop-opacity="1"/>
<stop offset="0.242188" stop-color="rgb(78.219604%, 84.466553%, 92.851257%)" stop-opacity="1"/>
<stop offset="0.25" stop-color="rgb(77.835083%, 84.19342%, 92.718506%)" stop-opacity="1"/>
<stop offset="0.257812" stop-color="rgb(77.449036%, 83.920288%, 92.58728%)" stop-opacity="1"/>
<stop offset="0.265625" stop-color="rgb(77.062988%, 83.64563%, 92.454529%)" stop-opacity="1"/>
<stop offset="0.273438" stop-color="rgb(76.676941%, 83.372498%, 92.323303%)" stop-opacity="1"/>
<stop offset="0.28125" stop-color="rgb(76.290894%, 83.097839%, 92.190552%)" stop-opacity="1"/>
<stop offset="0.289062" stop-color="rgb(75.906372%, 82.824707%, 92.059326%)" stop-opacity="1"/>
<stop offset="0.296875" stop-color="rgb(75.520325%, 82.551575%, 91.928101%)" stop-opacity="1"/>
<stop offset="0.304688" stop-color="rgb(75.134277%, 82.276917%, 91.795349%)" stop-opacity="1"/>
<stop offset="0.3125" stop-color="rgb(74.74823%, 82.003784%, 91.664124%)" stop-opacity="1"/>
<stop offset="0.320312" stop-color="rgb(74.363708%, 81.730652%, 91.531372%)" stop-opacity="1"/>
<stop offset="0.328125" stop-color="rgb(73.977661%, 81.455994%, 91.400146%)" stop-opacity="1"/>
<stop offset="0.335938" stop-color="rgb(73.591614%, 81.182861%, 91.267395%)" stop-opacity="1"/>
<stop offset="0.34375" stop-color="rgb(73.205566%, 80.908203%, 91.136169%)" stop-opacity="1"/>
<stop offset="0.351562" stop-color="rgb(72.821045%, 80.635071%, 91.004944%)" stop-opacity="1"/>
<stop offset="0.359375" stop-color="rgb(72.434998%, 80.361938%, 90.872192%)" stop-opacity="1"/>
<stop offset="0.367188" stop-color="rgb(72.04895%, 80.08728%, 90.740967%)" stop-opacity="1"/>
<stop offset="0.375" stop-color="rgb(71.662903%, 79.814148%, 90.608215%)" stop-opacity="1"/>
<stop offset="0.382812" stop-color="rgb(71.278381%, 79.541016%, 90.47699%)" stop-opacity="1"/>
<stop offset="0.390625" stop-color="rgb(70.892334%, 79.266357%, 90.344238%)" stop-opacity="1"/>
<stop offset="0.398438" stop-color="rgb(70.506287%, 78.993225%, 90.213013%)" stop-opacity="1"/>
<stop offset="0.40625" stop-color="rgb(70.120239%, 78.718567%, 90.081787%)" stop-opacity="1"/>
<stop offset="0.414062" stop-color="rgb(69.735718%, 78.445435%, 89.949036%)" stop-opacity="1"/>
<stop offset="0.421875" stop-color="rgb(69.34967%, 78.172302%, 89.81781%)" stop-opacity="1"/>
<stop offset="0.429688" stop-color="rgb(68.963623%, 77.897644%, 89.685059%)" stop-opacity="1"/>
<stop offset="0.4375" stop-color="rgb(68.577576%, 77.624512%, 89.553833%)" stop-opacity="1"/>
<stop offset="0.445312" stop-color="rgb(68.193054%, 77.351379%, 89.421082%)" stop-opacity="1"/>
<stop offset="0.453125" stop-color="rgb(67.807007%, 77.076721%, 89.289856%)" stop-opacity="1"/>
<stop offset="0.460938" stop-color="rgb(67.420959%, 76.803589%, 89.15863%)" stop-opacity="1"/>
<stop offset="0.46875" stop-color="rgb(67.034912%, 76.528931%, 89.025879%)" stop-opacity="1"/>
<stop offset="0.476562" stop-color="rgb(66.650391%, 76.255798%, 88.894653%)" stop-opacity="1"/>
<stop offset="0.484375" stop-color="rgb(66.264343%, 75.982666%, 88.761902%)" stop-opacity="1"/>
<stop offset="0.492188" stop-color="rgb(65.878296%, 75.708008%, 88.630676%)" stop-opacity="1"/>
<stop offset="0.5" stop-color="rgb(65.492249%, 75.434875%, 88.497925%)" stop-opacity="1"/>
<stop offset="0.507812" stop-color="rgb(65.106201%, 75.160217%, 88.366699%)" stop-opacity="1"/>
<stop offset="0.515625" stop-color="rgb(64.72168%, 74.887085%, 88.235474%)" stop-opacity="1"/>
<stop offset="0.523438" stop-color="rgb(64.335632%, 74.613953%, 88.102722%)" stop-opacity="1"/>
<stop offset="0.53125" stop-color="rgb(63.949585%, 74.339294%, 87.971497%)" stop-opacity="1"/>
<stop offset="0.539062" stop-color="rgb(63.563538%, 74.066162%, 87.838745%)" stop-opacity="1"/>
<stop offset="0.546875" stop-color="rgb(63.179016%, 73.79303%, 87.70752%)" stop-opacity="1"/>
<stop offset="0.554688" stop-color="rgb(62.792969%, 73.518372%, 87.574768%)" stop-opacity="1"/>
<stop offset="0.5625" stop-color="rgb(62.406921%, 73.245239%, 87.443542%)" stop-opacity="1"/>
<stop offset="0.570312" stop-color="rgb(62.020874%, 72.970581%, 87.312317%)" stop-opacity="1"/>
<stop offset="0.578125" stop-color="rgb(61.636353%, 72.697449%, 87.179565%)" stop-opacity="1"/>
<stop offset="0.585938" stop-color="rgb(61.250305%, 72.424316%, 87.04834%)" stop-opacity="1"/>
<stop offset="0.59375" stop-color="rgb(60.864258%, 72.149658%, 86.915588%)" stop-opacity="1"/>
<stop offset="0.601562" stop-color="rgb(60.47821%, 71.876526%, 86.784363%)" stop-opacity="1"/>
<stop offset="0.609375" stop-color="rgb(60.093689%, 71.603394%, 86.651611%)" stop-opacity="1"/>
<stop offset="0.617188" stop-color="rgb(59.707642%, 71.328735%, 86.520386%)" stop-opacity="1"/>
<stop offset="0.625" stop-color="rgb(59.321594%, 71.055603%, 86.38916%)" stop-opacity="1"/>
<stop offset="0.632812" stop-color="rgb(58.935547%, 70.780945%, 86.256409%)" stop-opacity="1"/>
<stop offset="0.640625" stop-color="rgb(58.551025%, 70.507812%, 86.125183%)" stop-opacity="1"/>
<stop offset="0.648438" stop-color="rgb(58.164978%, 70.23468%, 85.992432%)" stop-opacity="1"/>
<stop offset="0.65625" stop-color="rgb(57.778931%, 69.960022%, 85.861206%)" stop-opacity="1"/>
<stop offset="0.664062" stop-color="rgb(57.392883%, 69.68689%, 85.728455%)" stop-opacity="1"/>
<stop offset="0.671875" stop-color="rgb(57.008362%, 69.413757%, 85.597229%)" stop-opacity="1"/>
<stop offset="0.679688" stop-color="rgb(56.622314%, 69.139099%, 85.466003%)" stop-opacity="1"/>
<stop offset="0.6875" stop-color="rgb(56.236267%, 68.865967%, 85.333252%)" stop-opacity="1"/>
<stop offset="0.695312" stop-color="rgb(55.85022%, 68.591309%, 85.202026%)" stop-opacity="1"/>
<stop offset="0.703125" stop-color="rgb(55.465698%, 68.318176%, 85.069275%)" stop-opacity="1"/>
<stop offset="0.710938" stop-color="rgb(55.079651%, 68.045044%, 84.938049%)" stop-opacity="1"/>
<stop offset="0.71875" stop-color="rgb(54.693604%, 67.770386%, 84.805298%)" stop-opacity="1"/>
<stop offset="0.726562" stop-color="rgb(54.307556%, 67.497253%, 84.674072%)" stop-opacity="1"/>
<stop offset="0.734375" stop-color="rgb(53.921509%, 67.224121%, 84.542847%)" stop-opacity="1"/>
<stop offset="0.742188" stop-color="rgb(53.536987%, 66.949463%, 84.410095%)" stop-opacity="1"/>
<stop offset="0.75" stop-color="rgb(53.15094%, 66.676331%, 84.27887%)" stop-opacity="1"/>
<stop offset="0.757812" stop-color="rgb(52.764893%, 66.401672%, 84.146118%)" stop-opacity="1"/>
<stop offset="0.765625" stop-color="rgb(52.378845%, 66.12854%, 84.014893%)" stop-opacity="1"/>
<stop offset="0.773438" stop-color="rgb(51.994324%, 65.855408%, 83.882141%)" stop-opacity="1"/>
<stop offset="0.78125" stop-color="rgb(51.608276%, 65.58075%, 83.750916%)" stop-opacity="1"/>
<stop offset="0.789062" stop-color="rgb(51.222229%, 65.307617%, 83.61969%)" stop-opacity="1"/>
<stop offset="0.796875" stop-color="rgb(50.836182%, 65.034485%, 83.486938%)" stop-opacity="1"/>
<stop offset="0.804688" stop-color="rgb(50.45166%, 64.759827%, 83.355713%)" stop-opacity="1"/>
<stop offset="0.8125" stop-color="rgb(50.065613%, 64.486694%, 83.222961%)" stop-opacity="1"/>
<stop offset="0.820312" stop-color="rgb(49.679565%, 64.212036%, 83.091736%)" stop-opacity="1"/>
<stop offset="0.828125" stop-color="rgb(49.293518%, 63.938904%, 82.958984%)" stop-opacity="1"/>
<stop offset="0.835938" stop-color="rgb(48.908997%, 63.665771%, 82.827759%)" stop-opacity="1"/>
<stop offset="0.84375" stop-color="rgb(48.522949%, 63.391113%, 82.696533%)" stop-opacity="1"/>
<stop offset="0.851562" stop-color="rgb(48.136902%, 63.117981%, 82.563782%)" stop-opacity="1"/>
<stop offset="0.859375" stop-color="rgb(47.750854%, 62.844849%, 82.432556%)" stop-opacity="1"/>
<stop offset="0.867188" stop-color="rgb(47.366333%, 62.57019%, 82.299805%)" stop-opacity="1"/>
<stop offset="0.875" stop-color="rgb(46.980286%, 62.297058%, 82.168579%)" stop-opacity="1"/>
<stop offset="0.882812" stop-color="rgb(46.594238%, 62.0224%, 82.035828%)" stop-opacity="1"/>
<stop offset="0.890625" stop-color="rgb(46.208191%, 61.749268%, 81.904602%)" stop-opacity="1"/>
<stop offset="0.898438" stop-color="rgb(45.823669%, 61.476135%, 81.773376%)" stop-opacity="1"/>
<stop offset="0.90625" stop-color="rgb(45.437622%, 61.201477%, 81.640625%)" stop-opacity="1"/>
<stop offset="0.914062" stop-color="rgb(45.051575%, 60.928345%, 81.509399%)" stop-opacity="1"/>
<stop offset="0.921875" stop-color="rgb(44.665527%, 60.653687%, 81.376648%)" stop-opacity="1"/>
<stop offset="0.929688" stop-color="rgb(44.281006%, 60.380554%, 81.245422%)" stop-opacity="1"/>
<stop offset="0.9375" stop-color="rgb(43.894958%, 60.107422%, 81.114197%)" stop-opacity="1"/>
<stop offset="0.945312" stop-color="rgb(43.508911%, 59.832764%, 80.981445%)" stop-opacity="1"/>
<stop offset="0.953125" stop-color="rgb(43.122864%, 59.559631%, 80.85022%)" stop-opacity="1"/>
<stop offset="0.960938" stop-color="rgb(42.736816%, 59.286499%, 80.717468%)" stop-opacity="1"/>
<stop offset="0.96875" stop-color="rgb(42.352295%, 59.011841%, 80.586243%)" stop-opacity="1"/>
<stop offset="0.976562" stop-color="rgb(41.966248%, 58.738708%, 80.453491%)" stop-opacity="1"/>
<stop offset="0.984375" stop-color="rgb(41.5802%, 58.46405%, 80.322266%)" stop-opacity="1"/>
<stop offset="0.992188" stop-color="rgb(41.194153%, 58.190918%, 80.19104%)" stop-opacity="1"/>
<stop offset="1" stop-color="rgb(40.809631%, 57.917786%, 80.058289%)" stop-opacity="1"/>
</linearGradient>
</defs>
<path fill-rule="evenodd" fill="rgb(20.776367%, 43.138123%, 77.734375%)" fill-opacity="1" d="M 1936.488281 0 C 3001.578125 0 3872.980469 871.421875 3872.980469 1936.488281 C 3872.980469 3001.578125 3001.578125 3872.980469 1936.488281 3872.980469 C 871.414062 3872.980469 0 3001.578125 0 1936.488281 C 0 871.421875 871.414062 0 1936.488281 0 "/>
<g clip-path="url(#clip-0)">
<g clip-path="url(#clip-1)">
<path fill-rule="nonzero" fill="url(#linear-pattern-0)" d="M 696.683594 709.390625 L 696.683594 3163.601562 L 3175.839844 3163.601562 L 3175.839844 709.390625 Z M 696.683594 709.390625 "/>
</g>
</g>
</svg>
