<?xml version="1.0" encoding="UTF-8"?>
<svg xmlns="http://www.w3.org/2000/svg" xmlns:xlink="http://www.w3.org/1999/xlink" width="3872.98" height="3872.98" viewBox="0 0 3872.98 3872.98">
<defs>
<clipPath id="clip-0">
<path clip-rule="nonzero" d="M 698 699 L 3175 699 L 3175 3173 L 698 3173 Z M 698 699 "/>
</clipPath>
<clipPath id="clip-1">
<path clip-rule="evenodd" d="M 2033.308594 2728.570312 L 1839.671875 2728.570312 C 1789.679688 2728.570312 1789.679688 2651.109375 1839.671875 2651.109375 L 2033.308594 2651.109375 C 2083.289062 2651.109375 2083.289062 2728.570312 2033.308594 2728.570312 Z M 1900.660156 2497.539062 C 1867.691406 2497.539062 1849.019531 2455.679688 1873.289062 2431.410156 L 1989.898438 2314.789062 C 2025.199219 2279.449219 2080.019531 2334.191406 2044.660156 2369.558594 L 1928.070312 2486.171875 C 1920.480469 2493.78125 1910.570312 2497.539062 1900.660156 2497.539062 Z M 1855.730469 2388.410156 C 1822.75 2388.410156 1804.078125 2346.570312 1828.359375 2322.28125 C 1860.039062 2290.601562 1899.46875 2233.808594 1935.53125 2269.859375 C 1971.539062 2305.851562 1914.890625 2345.269531 1883.121094 2377.058594 C 1875.550781 2384.621094 1865.628906 2388.410156 1855.730469 2388.410156 Z M 2190.859375 2745.921875 L 2262.550781 2745.921875 C 2262.550781 2755.949219 2263.769531 2771.410156 2249.390625 2771.410156 C 2205.621094 2771.410156 2190.859375 2781.300781 2190.859375 2745.921875 Z M 2249.390625 2848.871094 L 2204.019531 2848.871094 C 2154.03125 2848.871094 2113.410156 2808.230469 2113.410156 2758.261719 C 2113.410156 2649.441406 2108.78125 2668.46875 2301.300781 2668.46875 C 2348.949219 2668.46875 2340.050781 2726.480469 2340.03125 2758.261719 C 2340.03125 2808.210938 2299.390625 2848.871094 2249.390625 2848.871094 Z M 1610.410156 2745.921875 L 1682.121094 2745.921875 C 1682.121094 2755.949219 1683.351562 2771.410156 1668.96875 2771.410156 C 1625.160156 2771.410156 1610.410156 2781.300781 1610.410156 2745.921875 Z M 1668.980469 2848.871094 L 1623.589844 2848.871094 C 1573.628906 2848.871094 1532.988281 2808.230469 1532.988281 2758.261719 C 1532.988281 2649.441406 1528.351562 2668.46875 1720.890625 2668.46875 C 1768.519531 2668.46875 1759.621094 2726.480469 1759.609375 2758.261719 C 1759.589844 2808.210938 1718.949219 2848.871094 1668.980469 2848.871094 Z M 2257.738281 2517.671875 L 1615.289062 2517.671875 L 1661.238281 2238.441406 L 2211.789062 2238.441406 Z M 2304.738281 2595.109375 C 2303.78125 2595.148438 2302.808594 2595.148438 2301.828125 2595.109375 L 1545.019531 2595.109375 C 1509.179688 2595.109375 1480 2624.28125 1480 2660.140625 L 1480 2835.28125 C 1480 2858.441406 1498.808594 2874.179688 1521.011719 2874.359375 L 2354.640625 2874.359375 C 2375.839844 2873.949219 2392.960938 2856.570312 2392.960938 2835.28125 L 2392.960938 2660.140625 C 2392.960938 2624.300781 2363.800781 2595.109375 2327.929688 2595.109375 Z M 2500.058594 1376.988281 C 2516.410156 1376.988281 2516.449219 1402.390625 2500.058594 1402.390625 C 2483.648438 1402.390625 2483.671875 1376.988281 2500.058594 1376.988281 Z M 2041.050781 1029.421875 C 2098.730469 1029.421875 2145.691406 1076.359375 2145.691406 1134.050781 C 2145.691406 1191.738281 2098.730469 1238.679688 2041.050781 1238.679688 C 1983.398438 1238.679688 1936.441406 1191.738281 1936.441406 1134.050781 C 1936.441406 1076.359375 1983.398438 1029.421875 2041.050781 1029.421875 Z M 2041.050781 1316.121094 C 1940.660156 1316.121094 1858.988281 1234.449219 1858.988281 1134.050781 C 1858.988281 1033.660156 1940.660156 951.980469 2041.050781 951.980469 C 2141.460938 951.980469 2223.148438 1033.660156 2223.148438 1134.050781 C 2223.148438 1234.449219 2141.460938 1316.121094 2041.050781 1316.121094 Z M 1999.53125 1489.929688 L 1999.550781 1489.929688 C 1999.550781 1459.980469 2009.140625 1410.75 1970.691406 1400.621094 C 1867.640625 1373.46875 1901.839844 1331.921875 1818.730469 1415.03125 L 1760.03125 1356.339844 C 1781.21875 1335.160156 1822.878906 1307.128906 1802.789062 1272.738281 C 1749.078125 1180.75 1802.621094 1175.539062 1685.160156 1175.539062 L 1685.160156 1092.519531 C 1715.101562 1092.511719 1764.308594 1102.109375 1774.441406 1063.660156 C 1801.589844 960.601562 1843.179688 994.800781 1760.050781 911.699219 L 1818.738281 853.011719 C 1839.941406 874.199219 1867.980469 915.828125 1902.351562 895.75 C 1994.328125 842.058594 1999.53125 895.570312 1999.53125 778.121094 L 2082.558594 778.121094 C 2082.558594 808.070312 2072.96875 857.308594 2111.441406 867.449219 C 2214.371094 894.53125 2180.269531 936.109375 2263.359375 853.019531 L 2322.058594 911.71875 C 2300.859375 932.910156 2259.261719 960.941406 2279.308594 995.308594 C 2332.988281 1087.351562 2279.550781 1092.519531 2396.941406 1092.519531 L 2396.941406 1175.539062 C 2279.53125 1175.539062 2332.988281 1180.710938 2279.308594 1272.761719 C 2258.929688 1307.710938 2301.28125 1334.578125 2323.238281 1355.109375 L 2263.359375 1415.050781 C 2242.160156 1393.851562 2214.171875 1352.238281 2179.75 1372.300781 C 2087.71875 1425.929688 2082.558594 1372.609375 2082.558594 1489.929688 Z M 2474.410156 1197.949219 C 2484.660156 1184.238281 2482.101562 1165.75 2482.101562 1149.480469 L 2518.089844 1149.480469 C 2518.089844 1174.550781 2516.570312 1204.21875 2546.960938 1212.230469 C 2608.480469 1228.421875 2603.148438 1261.269531 2657.21875 1207.128906 L 2682.648438 1232.558594 C 2664.941406 1250.28125 2642.859375 1270.230469 2658.679688 1297.359375 C 2690.828125 1352.5 2663.820312 1371.710938 2740.289062 1371.710938 L 2740.289062 1407.679688 C 2715.210938 1407.679688 2685.53125 1406.160156 2677.53125 1436.570312 C 2661.261719 1498.320312 2628.539062 1492.699219 2682.648438 1546.828125 L 2657.21875 1572.269531 C 2639.511719 1554.53125 2619.570312 1532.46875 2592.429688 1548.300781 C 2537.210938 1580.488281 2518.070312 1553.429688 2518.070312 1629.921875 L 2482.101562 1629.910156 C 2482.101562 1604.851562 2483.609375 1575.140625 2453.238281 1567.148438 C 2391.398438 1550.871094 2397.109375 1518.058594 2342.921875 1572.269531 L 2317.488281 1546.828125 C 2360.53125 1503.851562 2349.78125 1507.691406 2329.800781 1458.171875 C 2347.960938 1440 2398.96875 1393.558594 2410.921875 1376.050781 C 2392.070312 1499.359375 2590.199219 1519.128906 2590.199219 1389.691406 C 2590.199219 1291.71875 2456.148438 1266.75 2417.660156 1353.089844 C 2416.96875 1327.46875 2378.339844 1300.601562 2360.75 1284.148438 C 2365.558594 1273.980469 2369.828125 1263.589844 2373.609375 1253.019531 C 2439.71875 1253.019531 2474.410156 1264.839844 2474.410156 1197.949219 Z M 2812.980469 3094.871094 L 2812.980469 2881.730469 L 2902.828125 2922.328125 L 2902.828125 3094.871094 Z M 2237.179688 3094.871094 C 2230.070312 3094.871094 2224.039062 3088.859375 2224.039062 3081.710938 L 2224.039062 2951.800781 L 2315.191406 2951.800781 L 2315.191406 3081.710938 C 2315.191406 3102.238281 2272.828125 3094.871094 2237.179688 3094.871094 Z M 1725.421875 3094.871094 C 1729.859375 3064.96875 1726.828125 2986.550781 1726.988281 2951.800781 L 2146.578125 2951.800781 C 2146.578125 2986.550781 2143.191406 3064.949219 2147.550781 3094.871094 Z M 1570.488281 3094.871094 C 1566.019531 3094.710938 1563 3092.328125 1561.578125 3090.910156 C 1553.53125 3082.859375 1558.289062 2970.671875 1558.378906 2951.800781 L 1649.539062 2951.800781 C 1648.761719 3122.859375 1667.058594 3094.871094 1570.488281 3094.871094 Z M 1345.191406 3094.871094 L 1481.25 3094.871094 C 1476.96875 3065.070312 1480.78125 2980.578125 1480.949219 2945.378906 C 1435.371094 2929.539062 1402.550781 2886.160156 1402.550781 2835.28125 L 1402.550781 2660.140625 C 1402.550781 2584.351562 1462.011719 2522.199219 1536.75 2517.910156 L 1590.148438 2193.410156 C 1593.238281 2174.691406 1609.410156 2160.960938 1628.371094 2160.960938 L 2244.660156 2160.980469 C 2263.628906 2160.980469 2279.808594 2174.710938 2282.898438 2193.410156 L 2336.300781 2517.929688 C 2411 2522.261719 2470.410156 2584.390625 2470.410156 2660.140625 L 2470.410156 2835.28125 C 2470.429688 2885.941406 2437.910156 2929.160156 2392.640625 2945.160156 C 2392.640625 2980.78125 2396.070312 3064.578125 2391.679688 3094.871094 L 2527.820312 3094.871094 L 2527.820312 2046.039062 L 1345.191406 2046.039062 Z M 1137.480469 3094.871094 L 1267.71875 3094.871094 L 1267.71875 2007.308594 C 1267.71875 1985.921875 1285.058594 1968.578125 1306.460938 1968.578125 L 2566.539062 1968.578125 C 2587.941406 1968.578125 2605.269531 1985.921875 2605.269531 2007.308594 L 2605.269531 3094.871094 L 2735.519531 3094.871094 L 2735.519531 2007.308594 C 2735.519531 1985.921875 2752.839844 1968.578125 2774.25 1968.578125 L 2941.890625 1968.578125 L 2941.890625 1770.230469 C 2913.761719 1770.238281 2860.550781 1775.550781 2835.570312 1763.609375 L 2679.738281 1658.550781 C 2649.300781 1680.339844 2624.261719 1648.871094 2604.371094 1628.960938 C 2601.449219 1630.230469 2598.519531 1631.460938 2595.539062 1632.628906 C 2595.539062 1721.789062 2588.140625 1707.351562 2443.328125 1707.351562 C 2399.890625 1707.351562 2404.601562 1662.511719 2404.601562 1632.609375 C 2401.640625 1631.441406 2398.691406 1630.230469 2395.75 1628.941406 C 2332.660156 1692.039062 2337.738281 1676.601562 2235.328125 1574.21875 C 2209.800781 1548.710938 2229.75 1525 2248.980469 1505.789062 C 2231.898438 1498.929688 2205.679688 1466.941406 2192.070312 1453.339844 C 2181.609375 1458.308594 2170.929688 1462.71875 2160.019531 1466.640625 C 2160.019531 1587.699219 2173.191406 1567.398438 1960.820312 1567.398438 C 1910.058594 1567.398438 1922.089844 1499.550781 1922.089844 1466.578125 C 1911.199219 1462.679688 1900.511719 1458.25 1890.039062 1453.28125 C 1803.941406 1539.398438 1827.160156 1533.019531 1677.878906 1383.730469 C 1641.820312 1347.679688 1698.210938 1308.648438 1721.820312 1285.050781 C 1716.859375 1274.578125 1712.421875 1263.890625 1708.519531 1253 L 1684.410156 1253 C 1673.570312 1256.769531 1107.699219 1711.949219 1038.421875 1762.910156 C 1012.871094 1775.988281 959.914062 1770.21875 931.121094 1770.21875 L 931.121094 1968.558594 L 1098.738281 1968.578125 C 1120.148438 1968.578125 1137.480469 1985.921875 1137.480469 2007.308594 Z M 970.15625 3094.871094 L 970.15625 2922.308594 L 1060.011719 2881.691406 L 1060.011719 3094.871094 Z M 3137.109375 3172.328125 C 3187.101562 3172.328125 3187.101562 3094.871094 3137.109375 3094.871094 L 2980.28125 3094.871094 L 2980.28125 2897.328125 C 2980.28125 2882.101562 2971.398438 2868.289062 2957.53125 2862.03125 L 2812.980469 2796.710938 L 2812.980469 2046.039062 L 2980.601562 2046.039062 C 3002.011719 2046.039062 3019.328125 2028.699219 3019.351562 2007.308594 L 3019.351562 1731.488281 C 3019.351562 1710.089844 3002.03125 1692.769531 2980.621094 1692.769531 L 2869.019531 1692.769531 L 2735.980469 1603.058594 C 2788.789062 1550.261719 2792.078125 1546.699219 2739.320312 1493.988281 C 2740.628906 1491.070312 2741.851562 1488.121094 2743.011719 1485.160156 C 2772.910156 1485.171875 2817.75 1489.890625 2817.75 1446.429688 C 2817.75 1301.5 2832.171875 1294.269531 2743.011719 1294.269531 C 2741.828125 1291.308594 2740.601562 1288.359375 2739.320312 1285.441406 C 2760.398438 1264.359375 2795.53125 1235.890625 2764.820312 1205.179688 C 2662.699219 1103.078125 2667.011719 1087.78125 2604.351562 1150.429688 C 2601.410156 1149.148438 2598.480469 1147.941406 2595.5 1146.78125 C 2595.5 1061.300781 2587.660156 1072.03125 2474.410156 1072.03125 C 2474.410156 1004.28125 2444.859375 1015.078125 2373.609375 1015.070312 C 2369.730469 1004.179688 2365.300781 993.488281 2360.339844 983.019531 C 2383.621094 959.710938 2440.121094 920.230469 2404.230469 884.351562 C 2254.28125 734.429688 2278.109375 728.730469 2192.070312 814.769531 C 2181.609375 809.808594 2170.929688 805.371094 2160.019531 801.480469 C 2160.019531 768.511719 2172.070312 700.648438 2121.289062 700.648438 C 1908.910156 700.648438 1922.070312 680.339844 1922.070312 801.480469 C 1911.179688 805.390625 1900.488281 809.808594 1890.019531 814.769531 C 1866.730469 791.460938 1827.261719 734.96875 1791.339844 770.859375 C 1641.28125 920.808594 1635.871094 897.101562 1721.820312 983.011719 C 1716.859375 993.46875 1712.421875 1004.171875 1708.519531 1015.058594 C 1587.378906 1015.058594 1607.699219 1002.949219 1607.710938 1214.859375 L 1002.320312 1692.769531 L 892.386719 1692.769531 C 870.992188 1692.769531 853.667969 1710.089844 853.667969 1731.488281 L 853.667969 2007.308594 C 853.667969 2028.699219 870.992188 2046.039062 892.386719 2046.039062 L 1060.011719 2046.039062 L 1060.011719 2796.710938 L 915.492188 2862.011719 C 901.625 2868.289062 892.71875 2882.078125 892.71875 2897.308594 L 892.71875 3094.871094 L 735.875 3094.871094 C 685.898438 3094.871094 685.898438 3172.328125 735.875 3172.328125 Z M 1972.878906 2827.679688 C 1929.640625 2827.679688 1861.398438 2839.890625 1861.398438 2788.949219 C 1861.398438 2737.988281 1929.640625 2750.21875 1972.878906 2750.21875 C 2022.851562 2750.21875 2022.851562 2827.679688 1972.878906 2827.679688 "/>
</clipPath>
<linearGradient id="linear-pattern-0" gradientUnits="userSpaceOnUse" x1="-0.0101471" y1="0" x2="1.010147" y2="0" gradientTransform="matrix(2451.45, 0, 0, 2451.45, 710.775, 1935.85)">
<stop offset="0" stop-color="rgb(95.684814%, 96.861267%, 98.822021%)" stop-opacity="1"/>
<stop offset="0.015625" stop-color="rgb(95.509338%, 96.736145%, 98.762512%)" stop-opacity="1"/>
<stop offset="0.0195312" stop-color="rgb(95.091248%, 96.440125%, 98.61908%)" stop-opacity="1"/>
<stop offset="0.0234375" stop-color="rgb(94.848633%, 96.2677%, 98.536682%)" stop-opacity="1"/>
<stop offset="0.0273438" stop-color="rgb(94.606018%, 96.095276%, 98.452759%)" stop-opacity="1"/>
<stop offset="0.03125" stop-color="rgb(94.364929%, 95.924377%, 98.370361%)" stop-opacity="1"/>
<stop offset="0.0351562" stop-color="rgb(94.122314%, 95.751953%, 98.287964%)" stop-opacity="1"/>
<stop offset="0.0390625" stop-color="rgb(93.8797%, 95.581055%, 98.205566%)" stop-opacity="1"/>
<stop offset="0.0429688" stop-color="rgb(93.637085%, 95.40863%, 98.121643%)" stop-opacity="1"/>
<stop offset="0.046875" stop-color="rgb(93.39447%, 95.236206%, 98.039246%)" stop-opacity="1"/>
<stop offset="0.0507813" stop-color="rgb(93.151855%, 95.063782%, 97.956848%)" stop-opacity="1"/>
<stop offset="0.0546875" stop-color="rgb(92.910767%, 94.892883%, 97.874451%)" stop-opacity="1"/>
<stop offset="0.0585938" stop-color="rgb(92.668152%, 94.720459%, 97.790527%)" stop-opacity="1"/>
<stop offset="0.0625" stop-color="rgb(92.425537%, 94.549561%, 97.70813%)" stop-opacity="1"/>
<stop offset="0.0664062" stop-color="rgb(92.182922%, 94.377136%, 97.625732%)" stop-opacity="1"/>
<stop offset="0.0703125" stop-color="rgb(91.941833%, 94.204712%, 97.543335%)" stop-opacity="1"/>
<stop offset="0.0742188" stop-color="rgb(91.699219%, 94.032288%, 97.459412%)" stop-opacity="1"/>
<stop offset="0.078125" stop-color="rgb(91.456604%, 93.861389%, 97.377014%)" stop-opacity="1"/>
<stop offset="0.0820312" stop-color="rgb(91.213989%, 93.688965%, 97.293091%)" stop-opacity="1"/>
<stop offset="0.0859375" stop-color="rgb(90.9729%, 93.518066%, 97.210693%)" stop-opacity="1"/>
<stop offset="0.0898438" stop-color="rgb(90.730286%, 93.345642%, 97.128296%)" stop-opacity="1"/>
<stop offset="0.09375" stop-color="rgb(90.487671%, 93.173218%, 97.045898%)" stop-opacity="1"/>
<stop offset="0.0976563" stop-color="rgb(90.245056%, 93.000793%, 96.961975%)" stop-opacity="1"/>
<stop offset="0.101563" stop-color="rgb(90.003967%, 92.829895%, 96.879578%)" stop-opacity="1"/>
<stop offset="0.105469" stop-color="rgb(89.761353%, 92.657471%, 96.79718%)" stop-opacity="1"/>
<stop offset="0.109375" stop-color="rgb(89.518738%, 92.485046%, 96.714783%)" stop-opacity="1"/>
<stop offset="0.113281" stop-color="rgb(89.276123%, 92.312622%, 96.630859%)" stop-opacity="1"/>
<stop offset="0.117188" stop-color="rgb(89.035034%, 92.141724%, 96.548462%)" stop-opacity="1"/>
<stop offset="0.121094" stop-color="rgb(88.792419%, 91.969299%, 96.464539%)" stop-opacity="1"/>
<stop offset="0.125" stop-color="rgb(88.549805%, 91.798401%, 96.382141%)" stop-opacity="1"/>
<stop offset="0.128906" stop-color="rgb(88.30719%, 91.625977%, 96.299744%)" stop-opacity="1"/>
<stop offset="0.132812" stop-color="rgb(88.066101%, 91.453552%, 96.217346%)" stop-opacity="1"/>
<stop offset="0.136719" stop-color="rgb(87.823486%, 91.281128%, 96.133423%)" stop-opacity="1"/>
<stop offset="0.140625" stop-color="rgb(87.580872%, 91.110229%, 96.051025%)" stop-opacity="1"/>
<stop offset="0.144531" stop-color="rgb(87.338257%, 90.937805%, 95.968628%)" stop-opacity="1"/>
<stop offset="0.148438" stop-color="rgb(87.097168%, 90.766907%, 95.88623%)" stop-opacity="1"/>
<stop offset="0.152344" stop-color="rgb(86.854553%, 90.594482%, 95.802307%)" stop-opacity="1"/>
<stop offset="0.15625" stop-color="rgb(86.611938%, 90.422058%, 95.71991%)" stop-opacity="1"/>
<stop offset="0.160156" stop-color="rgb(86.369324%, 90.249634%, 95.637512%)" stop-opacity="1"/>
<stop offset="0.164062" stop-color="rgb(86.128235%, 90.078735%, 95.555115%)" stop-opacity="1"/>
<stop offset="0.167969" stop-color="rgb(85.88562%, 89.906311%, 95.471191%)" stop-opacity="1"/>
<stop offset="0.171875" stop-color="rgb(85.643005%, 89.735413%, 95.388794%)" stop-opacity="1"/>
<stop offset="0.175781" stop-color="rgb(85.400391%, 89.562988%, 95.304871%)" stop-opacity="1"/>
<stop offset="0.179688" stop-color="rgb(85.157776%, 89.390564%, 95.222473%)" stop-opacity="1"/>
<stop offset="0.183594" stop-color="rgb(84.915161%, 89.21814%, 95.140076%)" stop-opacity="1"/>
<stop offset="0.1875" stop-color="rgb(84.674072%, 89.047241%, 95.057678%)" stop-opacity="1"/>
<stop offset="0.191406" stop-color="rgb(84.431458%, 88.874817%, 94.973755%)" stop-opacity="1"/>
<stop offset="0.195313" stop-color="rgb(84.188843%, 88.703918%, 94.891357%)" stop-opacity="1"/>
<stop offset="0.199219" stop-color="rgb(83.946228%, 88.531494%, 94.80896%)" stop-opacity="1"/>
<stop offset="0.203125" stop-color="rgb(83.705139%, 88.35907%, 94.726562%)" stop-opacity="1"/>
<stop offset="0.207031" stop-color="rgb(83.462524%, 88.186646%, 94.642639%)" stop-opacity="1"/>
<stop offset="0.210938" stop-color="rgb(83.21991%, 88.015747%, 94.560242%)" stop-opacity="1"/>
<stop offset="0.214844" stop-color="rgb(82.977295%, 87.843323%, 94.477844%)" stop-opacity="1"/>
<stop offset="0.21875" stop-color="rgb(82.736206%, 87.672424%, 94.395447%)" stop-opacity="1"/>
<stop offset="0.222656" stop-color="rgb(82.493591%, 87.5%, 94.311523%)" stop-opacity="1"/>
<stop offset="0.226562" stop-color="rgb(82.250977%, 87.327576%, 94.229126%)" stop-opacity="1"/>
<stop offset="0.230469" stop-color="rgb(82.008362%, 87.155151%, 94.145203%)" stop-opacity="1"/>
<stop offset="0.234375" stop-color="rgb(81.767273%, 86.984253%, 94.062805%)" stop-opacity="1"/>
<stop offset="0.238281" stop-color="rgb(81.524658%, 86.811829%, 93.980408%)" stop-opacity="1"/>
<stop offset="0.242188" stop-color="rgb(81.282043%, 86.64093%, 93.89801%)" stop-opacity="1"/>
<stop offset="0.246094" stop-color="rgb(81.039429%, 86.468506%, 93.814087%)" stop-opacity="1"/>
<stop offset="0.25" stop-color="rgb(80.79834%, 86.296082%, 93.731689%)" stop-opacity="1"/>
<stop offset="0.253906" stop-color="rgb(80.555725%, 86.123657%, 93.649292%)" stop-opacity="1"/>
<stop offset="0.257812" stop-color="rgb(80.31311%, 85.952759%, 93.566895%)" stop-opacity="1"/>
<stop offset="0.261719" stop-color="rgb(80.070496%, 85.780334%, 93.482971%)" stop-opacity="1"/>
<stop offset="0.265625" stop-color="rgb(79.829407%, 85.609436%, 93.400574%)" stop-opacity="1"/>
<stop offset="0.269531" stop-color="rgb(79.586792%, 85.437012%, 93.318176%)" stop-opacity="1"/>
<stop offset="0.273438" stop-color="rgb(79.344177%, 85.264587%, 93.235779%)" stop-opacity="1"/>
<stop offset="0.277344" stop-color="rgb(79.101562%, 85.092163%, 93.151855%)" stop-opacity="1"/>
<stop offset="0.28125" stop-color="rgb(78.860474%, 84.921265%, 93.069458%)" stop-opacity="1"/>
<stop offset="0.285156" stop-color="rgb(78.617859%, 84.74884%, 92.985535%)" stop-opacity="1"/>
<stop offset="0.289062" stop-color="rgb(78.375244%, 84.577942%, 92.903137%)" stop-opacity="1"/>
<stop offset="0.292969" stop-color="rgb(78.132629%, 84.405518%, 92.82074%)" stop-opacity="1"/>
<stop offset="0.296875" stop-color="rgb(77.890015%, 84.233093%, 92.738342%)" stop-opacity="1"/>
<stop offset="0.300781" stop-color="rgb(77.6474%, 84.060669%, 92.654419%)" stop-opacity="1"/>
<stop offset="0.304687" stop-color="rgb(77.406311%, 83.889771%, 92.572021%)" stop-opacity="1"/>
<stop offset="0.308594" stop-color="rgb(77.163696%, 83.717346%, 92.489624%)" stop-opacity="1"/>
<stop offset="0.3125" stop-color="rgb(76.921082%, 83.546448%, 92.407227%)" stop-opacity="1"/>
<stop offset="0.316406" stop-color="rgb(76.678467%, 83.374023%, 92.323303%)" stop-opacity="1"/>
<stop offset="0.320312" stop-color="rgb(76.437378%, 83.201599%, 92.240906%)" stop-opacity="1"/>
<stop offset="0.324219" stop-color="rgb(76.194763%, 83.029175%, 92.158508%)" stop-opacity="1"/>
<stop offset="0.328125" stop-color="rgb(75.952148%, 82.858276%, 92.076111%)" stop-opacity="1"/>
<stop offset="0.332031" stop-color="rgb(75.709534%, 82.685852%, 91.992188%)" stop-opacity="1"/>
<stop offset="0.335938" stop-color="rgb(75.468445%, 82.513428%, 91.90979%)" stop-opacity="1"/>
<stop offset="0.339844" stop-color="rgb(75.22583%, 82.341003%, 91.825867%)" stop-opacity="1"/>
<stop offset="0.34375" stop-color="rgb(74.983215%, 82.170105%, 91.743469%)" stop-opacity="1"/>
<stop offset="0.347656" stop-color="rgb(74.740601%, 81.997681%, 91.661072%)" stop-opacity="1"/>
<stop offset="0.351563" stop-color="rgb(74.499512%, 81.826782%, 91.578674%)" stop-opacity="1"/>
<stop offset="0.355469" stop-color="rgb(74.256897%, 81.654358%, 91.494751%)" stop-opacity="1"/>
<stop offset="0.359375" stop-color="rgb(74.014282%, 81.481934%, 91.412354%)" stop-opacity="1"/>
<stop offset="0.363281" stop-color="rgb(73.771667%, 81.309509%, 91.329956%)" stop-opacity="1"/>
<stop offset="0.367188" stop-color="rgb(73.530579%, 81.138611%, 91.247559%)" stop-opacity="1"/>
<stop offset="0.371094" stop-color="rgb(73.287964%, 80.966187%, 91.163635%)" stop-opacity="1"/>
<stop offset="0.375" stop-color="rgb(73.045349%, 80.795288%, 91.081238%)" stop-opacity="1"/>
<stop offset="0.378906" stop-color="rgb(72.802734%, 80.622864%, 90.997314%)" stop-opacity="1"/>
<stop offset="0.382813" stop-color="rgb(72.561646%, 80.450439%, 90.914917%)" stop-opacity="1"/>
<stop offset="0.386719" stop-color="rgb(72.319031%, 80.278015%, 90.83252%)" stop-opacity="1"/>
<stop offset="0.390625" stop-color="rgb(72.076416%, 80.107117%, 90.750122%)" stop-opacity="1"/>
<stop offset="0.394531" stop-color="rgb(71.833801%, 79.934692%, 90.666199%)" stop-opacity="1"/>
<stop offset="0.398438" stop-color="rgb(71.592712%, 79.763794%, 90.583801%)" stop-opacity="1"/>
<stop offset="0.402344" stop-color="rgb(71.350098%, 79.59137%, 90.501404%)" stop-opacity="1"/>
<stop offset="0.40625" stop-color="rgb(71.107483%, 79.418945%, 90.419006%)" stop-opacity="1"/>
<stop offset="0.410156" stop-color="rgb(70.864868%, 79.246521%, 90.335083%)" stop-opacity="1"/>
<stop offset="0.414062" stop-color="rgb(70.623779%, 79.075623%, 90.252686%)" stop-opacity="1"/>
<stop offset="0.417969" stop-color="rgb(70.381165%, 78.903198%, 90.170288%)" stop-opacity="1"/>
<stop offset="0.421875" stop-color="rgb(70.13855%, 78.7323%, 90.087891%)" stop-opacity="1"/>
<stop offset="0.425781" stop-color="rgb(69.895935%, 78.559875%, 90.003967%)" stop-opacity="1"/>
<stop offset="0.429688" stop-color="rgb(69.65332%, 78.387451%, 89.92157%)" stop-opacity="1"/>
<stop offset="0.433594" stop-color="rgb(69.410706%, 78.215027%, 89.837646%)" stop-opacity="1"/>
<stop offset="0.4375" stop-color="rgb(69.169617%, 78.044128%, 89.755249%)" stop-opacity="1"/>
<stop offset="0.441406" stop-color="rgb(68.927002%, 77.871704%, 89.672852%)" stop-opacity="1"/>
<stop offset="0.445312" stop-color="rgb(68.684387%, 77.700806%, 89.590454%)" stop-opacity="1"/>
<stop offset="0.449219" stop-color="rgb(68.441772%, 77.528381%, 89.506531%)" stop-opacity="1"/>
<stop offset="0.453125" stop-color="rgb(68.200684%, 77.355957%, 89.424133%)" stop-opacity="1"/>
<stop offset="0.457031" stop-color="rgb(67.958069%, 77.183533%, 89.341736%)" stop-opacity="1"/>
<stop offset="0.460938" stop-color="rgb(67.715454%, 77.012634%, 89.259338%)" stop-opacity="1"/>
<stop offset="0.464844" stop-color="rgb(67.472839%, 76.84021%, 89.175415%)" stop-opacity="1"/>
<stop offset="0.46875" stop-color="rgb(67.23175%, 76.669312%, 89.093018%)" stop-opacity="1"/>
<stop offset="0.472656" stop-color="rgb(66.989136%, 76.496887%, 89.01062%)" stop-opacity="1"/>
<stop offset="0.476562" stop-color="rgb(66.746521%, 76.324463%, 88.928223%)" stop-opacity="1"/>
<stop offset="0.480469" stop-color="rgb(66.503906%, 76.152039%, 88.844299%)" stop-opacity="1"/>
<stop offset="0.484375" stop-color="rgb(66.262817%, 75.98114%, 88.761902%)" stop-opacity="1"/>
<stop offset="0.488281" stop-color="rgb(66.020203%, 75.808716%, 88.677979%)" stop-opacity="1"/>
<stop offset="0.492187" stop-color="rgb(65.777588%, 75.637817%, 88.595581%)" stop-opacity="1"/>
<stop offset="0.496094" stop-color="rgb(65.534973%, 75.465393%, 88.513184%)" stop-opacity="1"/>
<stop offset="0.5" stop-color="rgb(65.293884%, 75.292969%, 88.430786%)" stop-opacity="1"/>
<stop offset="0.503906" stop-color="rgb(65.05127%, 75.120544%, 88.346863%)" stop-opacity="1"/>
<stop offset="0.507812" stop-color="rgb(64.808655%, 74.949646%, 88.264465%)" stop-opacity="1"/>
<stop offset="0.511719" stop-color="rgb(64.56604%, 74.777222%, 88.182068%)" stop-opacity="1"/>
<stop offset="0.515625" stop-color="rgb(64.324951%, 74.606323%, 88.09967%)" stop-opacity="1"/>
<stop offset="0.519531" stop-color="rgb(64.082336%, 74.433899%, 88.015747%)" stop-opacity="1"/>
<stop offset="0.523438" stop-color="rgb(63.839722%, 74.261475%, 87.93335%)" stop-opacity="1"/>
<stop offset="0.527344" stop-color="rgb(63.597107%, 74.08905%, 87.850952%)" stop-opacity="1"/>
<stop offset="0.53125" stop-color="rgb(63.356018%, 73.918152%, 87.768555%)" stop-opacity="1"/>
<stop offset="0.535156" stop-color="rgb(63.113403%, 73.745728%, 87.684631%)" stop-opacity="1"/>
<stop offset="0.539062" stop-color="rgb(62.870789%, 73.574829%, 87.602234%)" stop-opacity="1"/>
<stop offset="0.542969" stop-color="rgb(62.628174%, 73.402405%, 87.518311%)" stop-opacity="1"/>
<stop offset="0.546875" stop-color="rgb(62.385559%, 73.22998%, 87.435913%)" stop-opacity="1"/>
<stop offset="0.550781" stop-color="rgb(62.142944%, 73.057556%, 87.353516%)" stop-opacity="1"/>
<stop offset="0.554687" stop-color="rgb(61.901855%, 72.886658%, 87.271118%)" stop-opacity="1"/>
<stop offset="0.558594" stop-color="rgb(61.659241%, 72.714233%, 87.187195%)" stop-opacity="1"/>
<stop offset="0.5625" stop-color="rgb(61.416626%, 72.541809%, 87.104797%)" stop-opacity="1"/>
<stop offset="0.566406" stop-color="rgb(61.174011%, 72.369385%, 87.0224%)" stop-opacity="1"/>
<stop offset="0.570312" stop-color="rgb(60.932922%, 72.198486%, 86.940002%)" stop-opacity="1"/>
<stop offset="0.574219" stop-color="rgb(60.690308%, 72.026062%, 86.856079%)" stop-opacity="1"/>
<stop offset="0.578125" stop-color="rgb(60.447693%, 71.855164%, 86.773682%)" stop-opacity="1"/>
<stop offset="0.582031" stop-color="rgb(60.205078%, 71.682739%, 86.691284%)" stop-opacity="1"/>
<stop offset="0.585938" stop-color="rgb(59.963989%, 71.510315%, 86.608887%)" stop-opacity="1"/>
<stop offset="0.589844" stop-color="rgb(59.721375%, 71.337891%, 86.524963%)" stop-opacity="1"/>
<stop offset="0.59375" stop-color="rgb(59.47876%, 71.166992%, 86.442566%)" stop-opacity="1"/>
<stop offset="0.597656" stop-color="rgb(59.236145%, 70.994568%, 86.358643%)" stop-opacity="1"/>
<stop offset="0.601562" stop-color="rgb(58.995056%, 70.823669%, 86.276245%)" stop-opacity="1"/>
<stop offset="0.605469" stop-color="rgb(58.752441%, 70.651245%, 86.193848%)" stop-opacity="1"/>
<stop offset="0.609375" stop-color="rgb(58.509827%, 70.478821%, 86.11145%)" stop-opacity="1"/>
<stop offset="0.613281" stop-color="rgb(58.267212%, 70.306396%, 86.027527%)" stop-opacity="1"/>
<stop offset="0.617187" stop-color="rgb(58.026123%, 70.135498%, 85.945129%)" stop-opacity="1"/>
<stop offset="0.621094" stop-color="rgb(57.783508%, 69.963074%, 85.862732%)" stop-opacity="1"/>
<stop offset="0.625" stop-color="rgb(57.540894%, 69.792175%, 85.780334%)" stop-opacity="1"/>
<stop offset="0.628906" stop-color="rgb(57.298279%, 69.619751%, 85.696411%)" stop-opacity="1"/>
<stop offset="0.632812" stop-color="rgb(57.05719%, 69.447327%, 85.614014%)" stop-opacity="1"/>
<stop offset="0.636719" stop-color="rgb(56.814575%, 69.274902%, 85.531616%)" stop-opacity="1"/>
<stop offset="0.640625" stop-color="rgb(56.57196%, 69.104004%, 85.449219%)" stop-opacity="1"/>
<stop offset="0.644531" stop-color="rgb(56.329346%, 68.93158%, 85.365295%)" stop-opacity="1"/>
<stop offset="0.648438" stop-color="rgb(56.088257%, 68.760681%, 85.282898%)" stop-opacity="1"/>
<stop offset="0.652344" stop-color="rgb(55.845642%, 68.588257%, 85.198975%)" stop-opacity="1"/>
<stop offset="0.65625" stop-color="rgb(55.603027%, 68.415833%, 85.116577%)" stop-opacity="1"/>
<stop offset="0.660156" stop-color="rgb(55.360413%, 68.243408%, 85.03418%)" stop-opacity="1"/>
<stop offset="0.664062" stop-color="rgb(55.119324%, 68.07251%, 84.951782%)" stop-opacity="1"/>
<stop offset="0.667969" stop-color="rgb(54.876709%, 67.900085%, 84.867859%)" stop-opacity="1"/>
<stop offset="0.671875" stop-color="rgb(54.634094%, 67.729187%, 84.785461%)" stop-opacity="1"/>
<stop offset="0.675781" stop-color="rgb(54.391479%, 67.556763%, 84.703064%)" stop-opacity="1"/>
<stop offset="0.679688" stop-color="rgb(54.148865%, 67.384338%, 84.620667%)" stop-opacity="1"/>
<stop offset="0.683594" stop-color="rgb(53.90625%, 67.211914%, 84.536743%)" stop-opacity="1"/>
<stop offset="0.6875" stop-color="rgb(53.665161%, 67.041016%, 84.454346%)" stop-opacity="1"/>
<stop offset="0.691406" stop-color="rgb(53.422546%, 66.868591%, 84.370422%)" stop-opacity="1"/>
<stop offset="0.695312" stop-color="rgb(53.179932%, 66.697693%, 84.288025%)" stop-opacity="1"/>
<stop offset="0.699219" stop-color="rgb(52.937317%, 66.525269%, 84.205627%)" stop-opacity="1"/>
<stop offset="0.703125" stop-color="rgb(52.696228%, 66.352844%, 84.12323%)" stop-opacity="1"/>
<stop offset="0.707031" stop-color="rgb(52.453613%, 66.18042%, 84.039307%)" stop-opacity="1"/>
<stop offset="0.710938" stop-color="rgb(52.210999%, 66.009521%, 83.956909%)" stop-opacity="1"/>
<stop offset="0.714844" stop-color="rgb(51.968384%, 65.837097%, 83.874512%)" stop-opacity="1"/>
<stop offset="0.71875" stop-color="rgb(51.727295%, 65.666199%, 83.792114%)" stop-opacity="1"/>
<stop offset="0.722656" stop-color="rgb(51.48468%, 65.493774%, 83.708191%)" stop-opacity="1"/>
<stop offset="0.726562" stop-color="rgb(51.242065%, 65.32135%, 83.625793%)" stop-opacity="1"/>
<stop offset="0.730469" stop-color="rgb(50.999451%, 65.148926%, 83.543396%)" stop-opacity="1"/>
<stop offset="0.734375" stop-color="rgb(50.758362%, 64.978027%, 83.460999%)" stop-opacity="1"/>
<stop offset="0.738281" stop-color="rgb(50.515747%, 64.805603%, 83.377075%)" stop-opacity="1"/>
<stop offset="0.742188" stop-color="rgb(50.273132%, 64.634705%, 83.294678%)" stop-opacity="1"/>
<stop offset="0.746094" stop-color="rgb(50.030518%, 64.46228%, 83.210754%)" stop-opacity="1"/>
<stop offset="0.75" stop-color="rgb(49.789429%, 64.289856%, 83.128357%)" stop-opacity="1"/>
<stop offset="0.753906" stop-color="rgb(49.546814%, 64.117432%, 83.045959%)" stop-opacity="1"/>
<stop offset="0.757813" stop-color="rgb(49.304199%, 63.946533%, 82.963562%)" stop-opacity="1"/>
<stop offset="0.761719" stop-color="rgb(49.061584%, 63.774109%, 82.879639%)" stop-opacity="1"/>
<stop offset="0.765625" stop-color="rgb(48.820496%, 63.60321%, 82.797241%)" stop-opacity="1"/>
<stop offset="0.769531" stop-color="rgb(48.577881%, 63.430786%, 82.714844%)" stop-opacity="1"/>
<stop offset="0.773438" stop-color="rgb(48.335266%, 63.258362%, 82.632446%)" stop-opacity="1"/>
<stop offset="0.777344" stop-color="rgb(48.092651%, 63.085938%, 82.548523%)" stop-opacity="1"/>
<stop offset="0.78125" stop-color="rgb(47.851562%, 62.915039%, 82.466125%)" stop-opacity="1"/>
<stop offset="0.785156" stop-color="rgb(47.608948%, 62.742615%, 82.383728%)" stop-opacity="1"/>
<stop offset="0.789062" stop-color="rgb(47.366333%, 62.57019%, 82.301331%)" stop-opacity="1"/>
<stop offset="0.792969" stop-color="rgb(47.123718%, 62.397766%, 82.217407%)" stop-opacity="1"/>
<stop offset="0.796875" stop-color="rgb(46.881104%, 62.226868%, 82.13501%)" stop-opacity="1"/>
<stop offset="0.800781" stop-color="rgb(46.638489%, 62.054443%, 82.051086%)" stop-opacity="1"/>
<stop offset="0.804688" stop-color="rgb(46.3974%, 61.883545%, 81.968689%)" stop-opacity="1"/>
<stop offset="0.808594" stop-color="rgb(46.154785%, 61.711121%, 81.886292%)" stop-opacity="1"/>
<stop offset="0.8125" stop-color="rgb(45.91217%, 61.538696%, 81.803894%)" stop-opacity="1"/>
<stop offset="0.816406" stop-color="rgb(45.669556%, 61.366272%, 81.719971%)" stop-opacity="1"/>
<stop offset="0.820313" stop-color="rgb(45.428467%, 61.195374%, 81.637573%)" stop-opacity="1"/>
<stop offset="0.824219" stop-color="rgb(45.185852%, 61.022949%, 81.555176%)" stop-opacity="1"/>
<stop offset="0.828125" stop-color="rgb(44.943237%, 60.852051%, 81.472778%)" stop-opacity="1"/>
<stop offset="0.832031" stop-color="rgb(44.700623%, 60.679626%, 81.388855%)" stop-opacity="1"/>
<stop offset="0.835938" stop-color="rgb(44.459534%, 60.507202%, 81.306458%)" stop-opacity="1"/>
<stop offset="0.839844" stop-color="rgb(44.216919%, 60.334778%, 81.22406%)" stop-opacity="1"/>
<stop offset="0.84375" stop-color="rgb(43.974304%, 60.163879%, 81.141663%)" stop-opacity="1"/>
<stop offset="0.847656" stop-color="rgb(43.731689%, 59.991455%, 81.057739%)" stop-opacity="1"/>
<stop offset="0.851562" stop-color="rgb(43.490601%, 59.820557%, 80.975342%)" stop-opacity="1"/>
<stop offset="0.855469" stop-color="rgb(43.247986%, 59.648132%, 80.891418%)" stop-opacity="1"/>
<stop offset="0.859375" stop-color="rgb(43.005371%, 59.475708%, 80.809021%)" stop-opacity="1"/>
<stop offset="0.863281" stop-color="rgb(42.762756%, 59.303284%, 80.726624%)" stop-opacity="1"/>
<stop offset="0.867188" stop-color="rgb(42.521667%, 59.132385%, 80.644226%)" stop-opacity="1"/>
<stop offset="0.871094" stop-color="rgb(42.279053%, 58.959961%, 80.560303%)" stop-opacity="1"/>
<stop offset="0.875" stop-color="rgb(42.036438%, 58.789062%, 80.477905%)" stop-opacity="1"/>
<stop offset="0.878906" stop-color="rgb(41.793823%, 58.616638%, 80.395508%)" stop-opacity="1"/>
<stop offset="0.882812" stop-color="rgb(41.552734%, 58.444214%, 80.31311%)" stop-opacity="1"/>
<stop offset="0.886719" stop-color="rgb(41.31012%, 58.27179%, 80.229187%)" stop-opacity="1"/>
<stop offset="0.890625" stop-color="rgb(41.067505%, 58.100891%, 80.14679%)" stop-opacity="1"/>
<stop offset="0.894531" stop-color="rgb(40.82489%, 57.928467%, 80.064392%)" stop-opacity="1"/>
<stop offset="0.898438" stop-color="rgb(40.583801%, 57.757568%, 79.981995%)" stop-opacity="1"/>
<stop offset="0.902344" stop-color="rgb(40.341187%, 57.585144%, 79.898071%)" stop-opacity="1"/>
<stop offset="0.90625" stop-color="rgb(40.098572%, 57.41272%, 79.815674%)" stop-opacity="1"/>
<stop offset="0.910156" stop-color="rgb(39.855957%, 57.240295%, 79.73175%)" stop-opacity="1"/>
<stop offset="0.914063" stop-color="rgb(39.614868%, 57.069397%, 79.649353%)" stop-opacity="1"/>
<stop offset="0.917969" stop-color="rgb(39.372253%, 56.896973%, 79.566956%)" stop-opacity="1"/>
<stop offset="0.921875" stop-color="rgb(39.129639%, 56.726074%, 79.484558%)" stop-opacity="1"/>
<stop offset="0.925781" stop-color="rgb(38.887024%, 56.55365%, 79.400635%)" stop-opacity="1"/>
<stop offset="0.929687" stop-color="rgb(38.644409%, 56.381226%, 79.318237%)" stop-opacity="1"/>
<stop offset="0.933594" stop-color="rgb(38.401794%, 56.208801%, 79.23584%)" stop-opacity="1"/>
<stop offset="0.9375" stop-color="rgb(38.160706%, 56.037903%, 79.153442%)" stop-opacity="1"/>
<stop offset="0.941406" stop-color="rgb(37.918091%, 55.865479%, 79.069519%)" stop-opacity="1"/>
<stop offset="0.945312" stop-color="rgb(37.675476%, 55.69458%, 78.987122%)" stop-opacity="1"/>
<stop offset="0.949219" stop-color="rgb(37.432861%, 55.522156%, 78.904724%)" stop-opacity="1"/>
<stop offset="0.953125" stop-color="rgb(37.191772%, 55.349731%, 78.822327%)" stop-opacity="1"/>
<stop offset="0.957031" stop-color="rgb(36.949158%, 55.177307%, 78.738403%)" stop-opacity="1"/>
<stop offset="0.960938" stop-color="rgb(36.706543%, 55.006409%, 78.656006%)" stop-opacity="1"/>
<stop offset="0.964844" stop-color="rgb(36.463928%, 54.833984%, 78.572083%)" stop-opacity="1"/>
<stop offset="0.96875" stop-color="rgb(36.222839%, 54.663086%, 78.489685%)" stop-opacity="1"/>
<stop offset="0.972656" stop-color="rgb(35.980225%, 54.490662%, 78.407288%)" stop-opacity="1"/>
<stop offset="0.976562" stop-color="rgb(35.73761%, 54.318237%, 78.32489%)" stop-opacity="1"/>
<stop offset="0.980469" stop-color="rgb(35.494995%, 54.145813%, 78.240967%)" stop-opacity="1"/>
<stop offset="0.984375" stop-color="rgb(35.253906%, 53.974915%, 78.158569%)" stop-opacity="1"/>
<stop offset="1" stop-color="rgb(35.076904%, 53.849792%, 78.097534%)" stop-opacity="1"/>
</linearGradient>
</defs>
<path fill-rule="evenodd" fill="rgb(20.776367%, 43.138123%, 77.34375%)" fill-opacity="1" d="M 1936.488281 0 C 3001.578125 0 3872.980469 871.421875 3872.980469 1936.488281 C 3872.980469 3001.578125 3001.578125 3872.980469 1936.488281 3872.980469 C 871.414062 3872.980469 0 3001.578125 0 1936.488281 C 0 871.421875 871.414062 0 1936.488281 0 "/>
<g clip-path="url(#clip-0)">
<g clip-path="url(#clip-1)">
<path fill-rule="nonzero" fill="url(#linear-pattern-0)" d="M 685.898438 680.339844 L 685.898438 3172.328125 L 3187.101562 3172.328125 L 3187.101562 680.339844 Z M 685.898438 680.339844 "/>
</g>
</g>
</svg>
