<?xml version="1.0" encoding="UTF-8"?>
<svg xmlns="http://www.w3.org/2000/svg" xmlns:xlink="http://www.w3.org/1999/xlink" width="3872.98" height="3872.98" viewBox="0 0 3872.98 3872.98">
<defs>
<clipPath id="clip-0">
<path clip-rule="nonzero" d="M 697 718 L 3176 718 L 3176 3155 L 697 3155 Z M 697 718 "/>
</clipPath>
<clipPath id="clip-1">
<path clip-rule="evenodd" d="M 1478.980469 1684.429688 C 1468.710938 1702.160156 1474.75 1725.160156 1492.699219 1735.429688 C 1510.429688 1745.710938 1533.429688 1739.679688 1543.699219 1721.710938 C 1548.738281 1713.039062 1549.96875 1702.960938 1547.320312 1693.289062 C 1544.671875 1683.609375 1538.628906 1675.550781 1529.980469 1670.710938 C 1521.308594 1665.679688 1511.230469 1664.460938 1501.558594 1666.871094 C 1492.101562 1669.519531 1484.019531 1675.789062 1478.980469 1684.429688 Z M 1511.261719 1808 C 1547.539062 1808 1583 1789.25 1602.550781 1755.378906 C 1616.640625 1730.988281 1620.289062 1702.570312 1613.019531 1675.550781 C 1605.769531 1648.550781 1588.441406 1625.980469 1564.050781 1611.859375 C 1539.671875 1597.96875 1511.429688 1594.128906 1484.21875 1601.390625 C 1457.011719 1608.648438 1434.449219 1625.980469 1420.328125 1650.359375 C 1391.5 1700.539062 1408.640625 1764.859375 1458.839844 1793.890625 C 1475.378906 1803.558594 1493.53125 1808 1511.261719 1808 Z M 1478.980469 2188.011719 C 1484.019531 2196.679688 1492.070312 2202.921875 1501.75 2205.320312 C 1511.429688 2207.941406 1521.5 2206.53125 1530.191406 2201.480469 C 1538.871094 2196.441406 1545.089844 2188.398438 1547.519531 2178.929688 C 1550.128906 2169.238281 1548.710938 2159.171875 1543.671875 2150.480469 C 1538.628906 2141.808594 1530.570312 2135.570312 1521.109375 2133.148438 C 1511.429688 2130.550781 1501.351562 2131.96875 1492.671875 2136.988281 C 1474.96875 2147.269531 1468.710938 2170.261719 1478.980469 2188.011719 Z M 1511.648438 2274.488281 C 1529.789062 2274.488281 1547.738281 2269.640625 1564.078125 2260.601562 C 1588.46875 2246.519531 1605.800781 2223.921875 1613.050781 2196.71875 C 1620.308594 2169.488281 1616.699219 2141.261719 1602.578125 2116.878906 C 1588.5 2092.488281 1565.898438 2075.148438 1538.691406 2067.898438 C 1511.488281 2060.640625 1483.25 2064.261719 1458.859375 2078.359375 C 1408.660156 2107.398438 1391.328125 2171.699219 1420.359375 2221.890625 C 1434.449219 2246.28125 1457.039062 2263.609375 1484.25 2270.859375 C 1493.289062 2273.289062 1502.578125 2274.488281 1511.648438 2274.488281 Z M 1915.210938 2365.179688 C 1894.671875 2365.179688 1877.929688 2381.929688 1877.929688 2402.46875 C 1877.929688 2423.019531 1894.671875 2439.738281 1915.210938 2439.738281 C 1935.761719 2439.738281 1952.488281 2423.019531 1952.488281 2402.46875 C 1952.488281 2381.929688 1935.789062 2365.179688 1915.210938 2365.179688 Z M 1915.210938 2507.511719 C 1973.070312 2507.511719 2020.230469 2460.351562 2020.230469 2402.488281 C 2020.230469 2344.640625 1973.070312 2297.480469 1915.210938 2297.480469 C 1857.351562 2297.480469 1810.191406 2344.640625 1810.191406 2402.488281 C 1810.191406 2460.351562 1857.351562 2507.511719 1915.210938 2507.511719 Z M 2319.179688 2131.96875 C 2315.96875 2131.96875 2312.71875 2132.359375 2309.511719 2133.148438 C 2299.839844 2135.769531 2291.78125 2141.828125 2286.960938 2150.480469 C 2281.910156 2159.171875 2280.691406 2169.238281 2283.101562 2178.929688 C 2285.738281 2188.601562 2291.78125 2196.660156 2300.429688 2201.480469 C 2318.378906 2211.769531 2341.171875 2205.71875 2351.429688 2187.769531 C 2361.710938 2170.039062 2355.691406 2147.03125 2337.71875 2136.769531 C 2332.089844 2133.78125 2325.648438 2131.96875 2319.179688 2131.96875 Z M 2318.988281 2274.488281 C 2328.070312 2274.488281 2337.148438 2273.269531 2346.390625 2270.648438 C 2373.609375 2263.378906 2396.191406 2246.058594 2410.289062 2221.671875 C 2439.128906 2171.480469 2421.988281 2107.160156 2371.78125 2078.148438 C 2347.390625 2064.058594 2319.160156 2060.421875 2291.960938 2067.671875 C 2264.761719 2074.941406 2242.179688 2092.25 2228.058594 2116.660156 C 2213.96875 2141.050781 2210.351562 2169.46875 2217.601562 2196.480469 C 2224.851562 2223.679688 2242.179688 2246.261719 2266.570312 2260.359375 C 2282.898438 2269.640625 2300.859375 2274.488281 2318.988281 2274.488281 Z M 2318.988281 1665.679688 C 2312.550781 1665.679688 2306.101562 1667.300781 2300.429688 1670.710938 C 2291.761719 1675.761719 2285.519531 1683.808594 2283.101562 1693.289062 C 2280.691406 1702.761719 2281.910156 1713.039062 2286.960938 1721.710938 C 2297.21875 1739.441406 2320.210938 1745.710938 2337.960938 1735.429688 C 2346.628906 1730.390625 2352.851562 1722.339844 2355.269531 1712.859375 C 2357.699219 1703.390625 2356.480469 1693.109375 2351.429688 1684.429688 C 2346.390625 1675.761719 2338.351562 1669.519531 2328.878906 1667.101562 C 2325.449219 1666.101562 2322.21875 1665.679688 2318.988281 1665.679688 Z M 2319.179688 1808 C 2337.148438 1808 2355.078125 1803.558594 2371.78125 1794.089844 C 2396.191406 1780 2413.5 1757.410156 2420.769531 1730.191406 C 2428.019531 1702.988281 2424.421875 1674.761719 2410.289062 1650.359375 C 2396.210938 1625.980469 2373.421875 1608.648438 2346.390625 1601.390625 C 2319.179688 1594.128906 2290.960938 1597.75 2266.570312 1611.859375 C 2242.179688 1625.949219 2224.851562 1648.550781 2217.601562 1675.761719 C 2210.351562 1702.960938 2213.949219 1731.199219 2228.058594 1755.589844 C 2247.421875 1789.25 2282.898438 1808 2319.179688 1808 Z M 1915.210938 1432.449219 C 1894.671875 1432.449219 1877.929688 1449.191406 1877.929688 1469.730469 C 1877.929688 1490.289062 1894.671875 1507.011719 1915.210938 1507.011719 C 1935.761719 1507.011719 1952.488281 1490.289062 1952.488281 1469.730469 C 1952.488281 1449.191406 1935.789062 1432.449219 1915.210938 1432.449219 Z M 1915.210938 1574.980469 C 1973.070312 1574.980469 2020.25 1527.800781 2020.230469 1469.960938 C 2020.230469 1412.101562 1973.070312 1364.941406 1915.210938 1364.941406 C 1857.351562 1364.941406 1810.191406 1412.101562 1810.191406 1469.960938 C 1810.191406 1527.828125 1857.351562 1574.980469 1915.210938 1574.980469 Z M 2845.71875 1856.988281 C 2850.980469 1856.988281 2856.019531 1857.609375 2860.828125 1859.011719 C 2875.980469 1863.011719 2888.46875 1872.699219 2896.328125 1886.210938 C 2904.191406 1899.699219 2906.191406 1915.441406 2902.160156 1930.550781 C 2898.140625 1945.691406 2888.46875 1958.179688 2874.949219 1966.039062 C 2861.460938 1973.898438 2845.71875 1975.910156 2830.609375 1971.871094 C 2815.460938 1967.871094 2802.96875 1958.160156 2795.128906 1944.671875 C 2787.269531 1931.171875 2785.238281 1915.441406 2789.28125 1900.320312 C 2793.300781 1885.191406 2802.96875 1872.699219 2816.511719 1864.839844 C 2825.570312 1859.609375 2835.648438 1856.988281 2845.71875 1856.988281 Z M 2846.148438 2041.660156 C 2802.398438 2041.660156 2759.871094 2019.089844 2736.488281 1978.570312 C 2701.640625 1918.289062 2722.378906 1840.871094 2782.660156 1806.019531 C 2811.878906 1789.070312 2845.960938 1784.640625 2878.421875 1793.320312 C 2911.058594 1802 2938.300781 1822.949219 2955.03125 1852.179688 C 2989.898438 1912.449219 2969.148438 1989.859375 2908.871094 2024.71875 C 2889.25 2036.191406 2867.488281 2041.660156 2846.148438 2041.660156 Z M 2398.429688 1081.890625 C 2388.351562 1081.890625 2378.28125 1084.511719 2369.199219 1089.75 C 2355.691406 1097.601562 2346.011719 1110.089844 2342 1125.230469 C 2337.960938 1140.351562 2339.96875 1156.078125 2347.828125 1169.570312 C 2363.960938 1197.601562 2399.808594 1207.058594 2427.839844 1190.941406 C 2455.898438 1174.808594 2465.328125 1138.949219 2449.21875 1110.921875 C 2441.378906 1097.390625 2428.871094 1087.71875 2413.738281 1083.710938 C 2408.699219 1082.71875 2403.460938 1081.890625 2398.429688 1081.890625 Z M 2398.828125 1266.761719 C 2420.199219 1266.761719 2441.769531 1261.300781 2461.730469 1249.820312 C 2522.011719 1214.96875 2542.75 1137.550781 2507.878906 1077.28125 C 2473.011719 1017 2395.621094 996.25 2335.339844 1031.121094 C 2275.058594 1065.980469 2254.300781 1143.390625 2289.160156 1203.671875 C 2312.550781 1244.191406 2355.078125 1266.761719 2398.828125 1266.761719 Z M 2955.210938 1724.140625 C 2960.839844 1724.140625 2966.671875 1722.539062 2971.949219 1719.691406 C 2988.28125 1710.421875 2993.71875 1689.671875 2984.441406 1673.53125 L 2677.410156 1141.96875 C 2668.128906 1125.628906 2647.589844 1120.191406 2631.261719 1129.46875 C 2614.910156 1138.75 2609.488281 1159.488281 2618.769531 1175.640625 L 2925.78125 1707.210938 C 2932.019531 1718.101562 2943.511719 1724.140625 2955.210938 1724.140625 Z M 1914.808594 1702.160156 C 1874.289062 1702.160156 1834.390625 1712.839844 1798.300781 1733.609375 C 1744.28125 1764.859375 1705.578125 1815.261719 1689.238281 1875.539062 C 1673.109375 1935.820312 1681.390625 1998.921875 1712.640625 2052.929688 C 1743.878906 2106.949219 1794.28125 2145.660156 1854.558594 2161.988281 C 1915.039062 2178.121094 1977.941406 2169.851562 2031.949219 2138.578125 C 2085.96875 2107.339844 2124.679688 2056.949219 2141.011719 1996.671875 C 2157.140625 1936.378906 2148.871094 1873.300781 2117.621094 1819.269531 C 2086.359375 1765.261719 2035.96875 1726.550781 1975.691406 1710.21875 C 1955.539062 1704.78125 1935.191406 1702.160156 1914.808594 1702.160156 Z M 1915.640625 2238 C 1968.03125 2238 2019.660156 2224.269531 2066.011719 2197.308594 C 2135.769531 2157.179688 2185.550781 2092.058594 2206.53125 2014.238281 C 2227.289062 1936.441406 2216.628906 1855.210938 2176.308594 1785.460938 C 2136.179688 1715.710938 2071.058594 1665.738281 1993.238281 1644.96875 C 1915.441406 1623.988281 1834.210938 1634.660156 1764.460938 1674.988281 C 1694.710938 1715.308594 1644.730469 1780.429688 1623.960938 1858.238281 C 1602.980469 1936.039062 1613.648438 2017.261719 1653.988281 2087.011719 C 1694.101562 2156.789062 1759.21875 2206.550781 1837.03125 2227.519531 C 1863.011719 2234.578125 1889.429688 2238 1915.640625 2238 Z M 1914.210938 1304.839844 C 1804.960938 1304.839844 1696.898438 1333.46875 1599.738281 1389.710938 C 1453.800781 1473.980469 1349.378906 1610.039062 1305.640625 1772.910156 C 1262.101562 1935.789062 1284.460938 2105.730469 1368.738281 2251.890625 C 1453.011719 2397.820312 1589.070312 2502.25 1751.941406 2546 C 1914.808594 2589.53125 2084.75 2567.160156 2230.71875 2482.878906 C 2376.648438 2398.628906 2481.070312 2262.570312 2524.800781 2099.679688 C 2538.058594 2050.148438 2545.191406 1999.960938 2546.351562 1949.988281 C 2546.269531 1948.429688 2546.308594 1946.871094 2546.449219 1945.320312 C 2548.238281 1832.578125 2519.558594 1721.101562 2461.730469 1620.910156 C 2404.191406 1521.261719 2322.46875 1440.96875 2224.589844 1386.140625 C 2222.171875 1385.160156 2219.859375 1383.890625 2217.691406 1382.339844 C 2174.199219 1358.671875 2127.570312 1339.988281 2078.5 1326.820312 C 2024.269531 1312.089844 1969.050781 1304.839844 1914.210938 1304.839844 Z M 3064.28125 2001.730469 C 3065.320312 1998.390625 3066.878906 1995.289062 3068.851562 1992.519531 C 3122.140625 1881.578125 3121.621094 1747.070312 3055.589844 1632.640625 L 2748.558594 1101.070312 C 2697.371094 1012.359375 2614.121094 948.671875 2514.519531 922.058594 C 2414.738281 895.25 2310.910156 908.769531 2222.210938 960.171875 L 2091.980469 1035.351562 L 2261.679688 1329.179688 C 2368.328125 1389.800781 2457.429688 1477.839844 2520.371094 1586.871094 C 2583.371094 1695.980469 2615.121094 1817.179688 2614.261719 1939.851562 L 2784.238281 2234.160156 L 2914.488281 2158.96875 C 2980.910156 2120.621094 3031.601562 2065.359375 3064.28125 2001.730469 Z M 2304.449219 854.460938 C 1987.550781 740.351562 1635.710938 770.121094 1340.269531 940.589844 C 791.140625 1257.679688 602.453125 1962.21875 919.351562 2511.328125 C 1072.960938 2777.421875 1320.929688 2967.5 1617.640625 3047.140625 C 1914.359375 3126.570312 2224.199219 3085.828125 2490.089844 2932.238281 C 2785.089844 2762.039062 2986.570312 2472.660156 3046.570312 2141.769531 C 3018.199219 2170.871094 2985.441406 2196.578125 2948.550781 2217.851562 L 2788.890625 2309.96875 C 2783.25 2312.570312 2777.378906 2313.980469 2771.75 2313.980469 C 2760.070312 2313.980469 2748.558594 2307.960938 2742.339844 2297.039062 L 2603.558594 2056.621094 C 2599.988281 2076.828125 2595.519531 2096.980469 2590.121094 2117.050781 C 2541.738281 2297.261719 2426.230469 2448.058594 2264.578125 2541.371094 C 2156.921875 2603.460938 2037.390625 2635.308594 1916.441406 2635.308594 C 1855.769531 2635.308594 1794.691406 2627.28125 1734.410156 2611.121094 C 1554.199219 2562.738281 1403.398438 2447.230469 1310.070312 2285.578125 C 1216.761719 2123.929688 1191.949219 1935.640625 1240.320312 1755.410156 C 1288.699219 1575.210938 1404.21875 1424.398438 1565.871094 1331.078125 C 1727.550781 1237.730469 1915.808594 1212.949219 2096.03125 1261.328125 C 2116.148438 1266.730469 2135.890625 1272.949219 2155.210938 1280 L 2016.589844 1039.800781 C 2012.140625 1031.941406 2010.949219 1022.859375 2013.179688 1014.179688 C 2015.578125 1005.511719 2021.21875 998.050781 2028.878906 993.640625 L 2188.539062 901.5 C 2225.320312 880.28125 2264.261719 864.558594 2304.449219 854.460938 Z M 1917.238281 3154.398438 C 2128.078125 3154.398438 2336.320312 3098.949219 2524.148438 2990.898438 C 2874.890625 2788.300781 3100.960938 2426.800781 3129.921875 2022.601562 C 3192.78125 1892.050781 3192.230469 1733.609375 3114.429688 1599 L 2807.421875 1067.429688 C 2747.148438 963.019531 2649.359375 888.21875 2532.25 856.769531 C 2504.890625 849.441406 2477.289062 844.691406 2449.730469 842.46875 C 2084.710938 664.398438 1657.78125 679 1306.441406 881.929688 C 725.0625 1217.589844 525.085938 1963.851562 860.730469 2545.210938 C 1023.398438 2826.828125 1286.050781 3028.210938 1600.140625 3112.480469 C 1704.960938 3140.480469 1811.390625 3154.398438 1917.238281 3154.398438 Z M 1916.640625 2887.070312 C 1587.640625 2887.070312 1267.328125 2716.550781 1091.351562 2411.75 C 829.082031 1957.589844 985.304688 1374.601562 1439.488281 1112.328125 C 1528.390625 1060.941406 1623.929688 1024.648438 1723.710938 1004.078125 C 1742.058594 1000.460938 1760 1012.140625 1763.609375 1030.488281 C 1767.449219 1048.839844 1755.558594 1066.78125 1737.199219 1070.390625 C 1644.679688 1089.351562 1555.96875 1123.21875 1473.320312 1170.988281 C 1051.421875 1414.519531 906.46875 1955.949219 1150 2377.871094 C 1393.519531 2799.78125 1934.960938 2944.730469 2356.871094 2701.210938 C 2453.828125 2645.160156 2537.898438 2572.789062 2606.828125 2485.921875 C 2618.53125 2471.199219 2639.898438 2468.78125 2654.421875 2480.480469 C 2669.140625 2492.179688 2671.558594 2513.339844 2659.859375 2528.050781 C 2585.460938 2621.601562 2494.960938 2699.609375 2390.53125 2759.890625 C 2241.199219 2846.171875 2077.910156 2887.070312 1916.640625 2887.070312 "/>
</clipPath>
<linearGradient id="linear-pattern-0" gradientUnits="userSpaceOnUse" x1="-0.144901" y1="0" x2="1.014799" y2="0" gradientTransform="matrix(2300.33, 0, 0, 2300.33, 858.408, 1936.51)">
<stop offset="0" stop-color="rgb(94.508362%, 95.684814%, 98.03772%)" stop-opacity="1"/>
<stop offset="0.125" stop-color="rgb(94.506836%, 95.683289%, 98.03772%)" stop-opacity="1"/>
<stop offset="0.128906" stop-color="rgb(94.236755%, 95.489502%, 97.944641%)" stop-opacity="1"/>
<stop offset="0.132812" stop-color="rgb(93.968201%, 95.295715%, 97.853088%)" stop-opacity="1"/>
<stop offset="0.136719" stop-color="rgb(93.699646%, 95.101929%, 97.76001%)" stop-opacity="1"/>
<stop offset="0.140625" stop-color="rgb(93.432617%, 94.908142%, 97.666931%)" stop-opacity="1"/>
<stop offset="0.144531" stop-color="rgb(93.164062%, 94.714355%, 97.573853%)" stop-opacity="1"/>
<stop offset="0.148438" stop-color="rgb(92.895508%, 94.520569%, 97.4823%)" stop-opacity="1"/>
<stop offset="0.152344" stop-color="rgb(92.626953%, 94.326782%, 97.389221%)" stop-opacity="1"/>
<stop offset="0.15625" stop-color="rgb(92.359924%, 94.134521%, 97.297668%)" stop-opacity="1"/>
<stop offset="0.160156" stop-color="rgb(92.09137%, 93.940735%, 97.20459%)" stop-opacity="1"/>
<stop offset="0.164062" stop-color="rgb(91.822815%, 93.746948%, 97.113037%)" stop-opacity="1"/>
<stop offset="0.167969" stop-color="rgb(91.55426%, 93.553162%, 97.019958%)" stop-opacity="1"/>
<stop offset="0.171875" stop-color="rgb(91.285706%, 93.359375%, 96.928406%)" stop-opacity="1"/>
<stop offset="0.175781" stop-color="rgb(91.017151%, 93.165588%, 96.835327%)" stop-opacity="1"/>
<stop offset="0.179687" stop-color="rgb(90.750122%, 92.971802%, 96.743774%)" stop-opacity="1"/>
<stop offset="0.183594" stop-color="rgb(90.481567%, 92.778015%, 96.650696%)" stop-opacity="1"/>
<stop offset="0.1875" stop-color="rgb(90.213013%, 92.584229%, 96.559143%)" stop-opacity="1"/>
<stop offset="0.191406" stop-color="rgb(89.944458%, 92.390442%, 96.466064%)" stop-opacity="1"/>
<stop offset="0.195312" stop-color="rgb(89.677429%, 92.198181%, 96.374512%)" stop-opacity="1"/>
<stop offset="0.199219" stop-color="rgb(89.408875%, 92.004395%, 96.281433%)" stop-opacity="1"/>
<stop offset="0.203125" stop-color="rgb(89.14032%, 91.810608%, 96.18988%)" stop-opacity="1"/>
<stop offset="0.207031" stop-color="rgb(88.871765%, 91.616821%, 96.096802%)" stop-opacity="1"/>
<stop offset="0.210937" stop-color="rgb(88.60321%, 91.423035%, 96.005249%)" stop-opacity="1"/>
<stop offset="0.214844" stop-color="rgb(88.334656%, 91.229248%, 95.91217%)" stop-opacity="1"/>
<stop offset="0.21875" stop-color="rgb(88.067627%, 91.035461%, 95.820618%)" stop-opacity="1"/>
<stop offset="0.222656" stop-color="rgb(87.799072%, 90.841675%, 95.727539%)" stop-opacity="1"/>
<stop offset="0.226562" stop-color="rgb(87.530518%, 90.647888%, 95.635986%)" stop-opacity="1"/>
<stop offset="0.230469" stop-color="rgb(87.261963%, 90.454102%, 95.542908%)" stop-opacity="1"/>
<stop offset="0.234375" stop-color="rgb(86.994934%, 90.260315%, 95.451355%)" stop-opacity="1"/>
<stop offset="0.238281" stop-color="rgb(86.726379%, 90.066528%, 95.358276%)" stop-opacity="1"/>
<stop offset="0.242187" stop-color="rgb(86.457825%, 89.874268%, 95.265198%)" stop-opacity="1"/>
<stop offset="0.246094" stop-color="rgb(86.18927%, 89.680481%, 95.172119%)" stop-opacity="1"/>
<stop offset="0.25" stop-color="rgb(85.920715%, 89.486694%, 95.080566%)" stop-opacity="1"/>
<stop offset="0.253906" stop-color="rgb(85.652161%, 89.292908%, 94.987488%)" stop-opacity="1"/>
<stop offset="0.257812" stop-color="rgb(85.385132%, 89.099121%, 94.895935%)" stop-opacity="1"/>
<stop offset="0.261719" stop-color="rgb(85.116577%, 88.905334%, 94.802856%)" stop-opacity="1"/>
<stop offset="0.265625" stop-color="rgb(84.848022%, 88.711548%, 94.711304%)" stop-opacity="1"/>
<stop offset="0.269531" stop-color="rgb(84.579468%, 88.517761%, 94.618225%)" stop-opacity="1"/>
<stop offset="0.273438" stop-color="rgb(84.312439%, 88.323975%, 94.526672%)" stop-opacity="1"/>
<stop offset="0.277344" stop-color="rgb(84.043884%, 88.130188%, 94.433594%)" stop-opacity="1"/>
<stop offset="0.28125" stop-color="rgb(83.77533%, 87.937927%, 94.342041%)" stop-opacity="1"/>
<stop offset="0.285156" stop-color="rgb(83.506775%, 87.744141%, 94.248962%)" stop-opacity="1"/>
<stop offset="0.289062" stop-color="rgb(83.23822%, 87.550354%, 94.15741%)" stop-opacity="1"/>
<stop offset="0.292969" stop-color="rgb(82.969666%, 87.356567%, 94.064331%)" stop-opacity="1"/>
<stop offset="0.296875" stop-color="rgb(82.702637%, 87.162781%, 93.972778%)" stop-opacity="1"/>
<stop offset="0.300781" stop-color="rgb(82.434082%, 86.968994%, 93.8797%)" stop-opacity="1"/>
<stop offset="0.304687" stop-color="rgb(82.165527%, 86.775208%, 93.788147%)" stop-opacity="1"/>
<stop offset="0.308594" stop-color="rgb(81.896973%, 86.581421%, 93.695068%)" stop-opacity="1"/>
<stop offset="0.3125" stop-color="rgb(81.629944%, 86.387634%, 93.603516%)" stop-opacity="1"/>
<stop offset="0.316406" stop-color="rgb(81.361389%, 86.193848%, 93.510437%)" stop-opacity="1"/>
<stop offset="0.320312" stop-color="rgb(81.092834%, 86.001587%, 93.418884%)" stop-opacity="1"/>
<stop offset="0.324219" stop-color="rgb(80.82428%, 85.8078%, 93.325806%)" stop-opacity="1"/>
<stop offset="0.328125" stop-color="rgb(80.555725%, 85.614014%, 93.234253%)" stop-opacity="1"/>
<stop offset="0.332031" stop-color="rgb(80.28717%, 85.420227%, 93.141174%)" stop-opacity="1"/>
<stop offset="0.335938" stop-color="rgb(80.020142%, 85.22644%, 93.048096%)" stop-opacity="1"/>
<stop offset="0.339844" stop-color="rgb(79.751587%, 85.032654%, 92.955017%)" stop-opacity="1"/>
<stop offset="0.34375" stop-color="rgb(79.483032%, 84.838867%, 92.863464%)" stop-opacity="1"/>
<stop offset="0.347656" stop-color="rgb(79.214478%, 84.645081%, 92.770386%)" stop-opacity="1"/>
<stop offset="0.351562" stop-color="rgb(78.947449%, 84.451294%, 92.678833%)" stop-opacity="1"/>
<stop offset="0.355469" stop-color="rgb(78.678894%, 84.257507%, 92.585754%)" stop-opacity="1"/>
<stop offset="0.359375" stop-color="rgb(78.410339%, 84.065247%, 92.494202%)" stop-opacity="1"/>
<stop offset="0.363281" stop-color="rgb(78.141785%, 83.87146%, 92.401123%)" stop-opacity="1"/>
<stop offset="0.367188" stop-color="rgb(77.87323%, 83.677673%, 92.30957%)" stop-opacity="1"/>
<stop offset="0.371094" stop-color="rgb(77.604675%, 83.483887%, 92.216492%)" stop-opacity="1"/>
<stop offset="0.375" stop-color="rgb(77.337646%, 83.2901%, 92.124939%)" stop-opacity="1"/>
<stop offset="0.378906" stop-color="rgb(77.069092%, 83.096313%, 92.03186%)" stop-opacity="1"/>
<stop offset="0.382812" stop-color="rgb(76.800537%, 82.902527%, 91.940308%)" stop-opacity="1"/>
<stop offset="0.386719" stop-color="rgb(76.531982%, 82.70874%, 91.847229%)" stop-opacity="1"/>
<stop offset="0.390625" stop-color="rgb(76.264954%, 82.514954%, 91.755676%)" stop-opacity="1"/>
<stop offset="0.394531" stop-color="rgb(75.996399%, 82.321167%, 91.662598%)" stop-opacity="1"/>
<stop offset="0.398437" stop-color="rgb(75.727844%, 82.128906%, 91.571045%)" stop-opacity="1"/>
<stop offset="0.402344" stop-color="rgb(75.45929%, 81.93512%, 91.477966%)" stop-opacity="1"/>
<stop offset="0.40625" stop-color="rgb(75.190735%, 81.741333%, 91.386414%)" stop-opacity="1"/>
<stop offset="0.410156" stop-color="rgb(74.92218%, 81.547546%, 91.293335%)" stop-opacity="1"/>
<stop offset="0.414062" stop-color="rgb(74.655151%, 81.35376%, 91.201782%)" stop-opacity="1"/>
<stop offset="0.417969" stop-color="rgb(74.386597%, 81.159973%, 91.108704%)" stop-opacity="1"/>
<stop offset="0.421875" stop-color="rgb(74.118042%, 80.966187%, 91.017151%)" stop-opacity="1"/>
<stop offset="0.425781" stop-color="rgb(73.849487%, 80.7724%, 90.924072%)" stop-opacity="1"/>
<stop offset="0.429688" stop-color="rgb(73.582458%, 80.578613%, 90.830994%)" stop-opacity="1"/>
<stop offset="0.433594" stop-color="rgb(73.313904%, 80.384827%, 90.737915%)" stop-opacity="1"/>
<stop offset="0.4375" stop-color="rgb(73.045349%, 80.192566%, 90.646362%)" stop-opacity="1"/>
<stop offset="0.441406" stop-color="rgb(72.776794%, 79.998779%, 90.553284%)" stop-opacity="1"/>
<stop offset="0.445312" stop-color="rgb(72.50824%, 79.804993%, 90.461731%)" stop-opacity="1"/>
<stop offset="0.449219" stop-color="rgb(72.239685%, 79.611206%, 90.368652%)" stop-opacity="1"/>
<stop offset="0.453125" stop-color="rgb(71.972656%, 79.417419%, 90.2771%)" stop-opacity="1"/>
<stop offset="0.457031" stop-color="rgb(71.704102%, 79.223633%, 90.184021%)" stop-opacity="1"/>
<stop offset="0.460938" stop-color="rgb(71.435547%, 79.029846%, 90.092468%)" stop-opacity="1"/>
<stop offset="0.464844" stop-color="rgb(71.166992%, 78.83606%, 89.99939%)" stop-opacity="1"/>
<stop offset="0.46875" stop-color="rgb(70.899963%, 78.642273%, 89.907837%)" stop-opacity="1"/>
<stop offset="0.472656" stop-color="rgb(70.631409%, 78.448486%, 89.814758%)" stop-opacity="1"/>
<stop offset="0.476562" stop-color="rgb(70.362854%, 78.2547%, 89.723206%)" stop-opacity="1"/>
<stop offset="0.480469" stop-color="rgb(70.094299%, 78.060913%, 89.630127%)" stop-opacity="1"/>
<stop offset="0.484375" stop-color="rgb(69.825745%, 77.868652%, 89.538574%)" stop-opacity="1"/>
<stop offset="0.488281" stop-color="rgb(69.55719%, 77.674866%, 89.445496%)" stop-opacity="1"/>
<stop offset="0.492187" stop-color="rgb(69.290161%, 77.481079%, 89.353943%)" stop-opacity="1"/>
<stop offset="0.496094" stop-color="rgb(69.021606%, 77.287292%, 89.260864%)" stop-opacity="1"/>
<stop offset="0.5" stop-color="rgb(68.753052%, 77.093506%, 89.169312%)" stop-opacity="1"/>
<stop offset="0.503906" stop-color="rgb(68.484497%, 76.899719%, 89.076233%)" stop-opacity="1"/>
<stop offset="0.507812" stop-color="rgb(68.217468%, 76.705933%, 88.98468%)" stop-opacity="1"/>
<stop offset="0.511719" stop-color="rgb(67.948914%, 76.512146%, 88.891602%)" stop-opacity="1"/>
<stop offset="0.515625" stop-color="rgb(67.680359%, 76.318359%, 88.800049%)" stop-opacity="1"/>
<stop offset="0.519531" stop-color="rgb(67.411804%, 76.124573%, 88.70697%)" stop-opacity="1"/>
<stop offset="0.523438" stop-color="rgb(67.14325%, 75.932312%, 88.613892%)" stop-opacity="1"/>
<stop offset="0.527344" stop-color="rgb(66.874695%, 75.738525%, 88.520813%)" stop-opacity="1"/>
<stop offset="0.53125" stop-color="rgb(66.607666%, 75.544739%, 88.42926%)" stop-opacity="1"/>
<stop offset="0.535156" stop-color="rgb(66.339111%, 75.350952%, 88.336182%)" stop-opacity="1"/>
<stop offset="0.539062" stop-color="rgb(66.070557%, 75.157166%, 88.244629%)" stop-opacity="1"/>
<stop offset="0.542969" stop-color="rgb(65.802002%, 74.963379%, 88.15155%)" stop-opacity="1"/>
<stop offset="0.546875" stop-color="rgb(65.534973%, 74.769592%, 88.059998%)" stop-opacity="1"/>
<stop offset="0.550781" stop-color="rgb(65.266418%, 74.575806%, 87.966919%)" stop-opacity="1"/>
<stop offset="0.554688" stop-color="rgb(64.997864%, 74.382019%, 87.875366%)" stop-opacity="1"/>
<stop offset="0.558594" stop-color="rgb(64.729309%, 74.188232%, 87.782288%)" stop-opacity="1"/>
<stop offset="0.5625" stop-color="rgb(64.460754%, 73.995972%, 87.690735%)" stop-opacity="1"/>
<stop offset="0.566406" stop-color="rgb(64.1922%, 73.802185%, 87.597656%)" stop-opacity="1"/>
<stop offset="0.570312" stop-color="rgb(63.925171%, 73.608398%, 87.506104%)" stop-opacity="1"/>
<stop offset="0.574219" stop-color="rgb(63.656616%, 73.414612%, 87.413025%)" stop-opacity="1"/>
<stop offset="0.578125" stop-color="rgb(63.388062%, 73.220825%, 87.321472%)" stop-opacity="1"/>
<stop offset="0.582031" stop-color="rgb(63.119507%, 73.027039%, 87.228394%)" stop-opacity="1"/>
<stop offset="0.585937" stop-color="rgb(62.850952%, 72.833252%, 87.136841%)" stop-opacity="1"/>
<stop offset="0.589844" stop-color="rgb(62.582397%, 72.639465%, 87.043762%)" stop-opacity="1"/>
<stop offset="0.59375" stop-color="rgb(62.315369%, 72.445679%, 86.952209%)" stop-opacity="1"/>
<stop offset="0.597656" stop-color="rgb(62.046814%, 72.251892%, 86.859131%)" stop-opacity="1"/>
<stop offset="0.601562" stop-color="rgb(61.778259%, 72.059631%, 86.767578%)" stop-opacity="1"/>
<stop offset="0.605469" stop-color="rgb(61.509705%, 71.865845%, 86.6745%)" stop-opacity="1"/>
<stop offset="0.609375" stop-color="rgb(61.242676%, 71.672058%, 86.582947%)" stop-opacity="1"/>
<stop offset="0.613281" stop-color="rgb(60.974121%, 71.478271%, 86.489868%)" stop-opacity="1"/>
<stop offset="0.617187" stop-color="rgb(60.705566%, 71.284485%, 86.398315%)" stop-opacity="1"/>
<stop offset="0.621094" stop-color="rgb(60.437012%, 71.090698%, 86.305237%)" stop-opacity="1"/>
<stop offset="0.625" stop-color="rgb(60.168457%, 70.896912%, 86.212158%)" stop-opacity="1"/>
<stop offset="0.628906" stop-color="rgb(59.899902%, 70.703125%, 86.11908%)" stop-opacity="1"/>
<stop offset="0.632812" stop-color="rgb(59.632874%, 70.509338%, 86.027527%)" stop-opacity="1"/>
<stop offset="0.636719" stop-color="rgb(59.364319%, 70.315552%, 85.934448%)" stop-opacity="1"/>
<stop offset="0.640625" stop-color="rgb(59.095764%, 70.123291%, 85.842896%)" stop-opacity="1"/>
<stop offset="0.644531" stop-color="rgb(58.827209%, 69.929504%, 85.749817%)" stop-opacity="1"/>
<stop offset="0.648438" stop-color="rgb(58.560181%, 69.735718%, 85.658264%)" stop-opacity="1"/>
<stop offset="0.652344" stop-color="rgb(58.291626%, 69.541931%, 85.565186%)" stop-opacity="1"/>
<stop offset="0.65625" stop-color="rgb(58.023071%, 69.348145%, 85.473633%)" stop-opacity="1"/>
<stop offset="0.660156" stop-color="rgb(57.754517%, 69.154358%, 85.380554%)" stop-opacity="1"/>
<stop offset="0.664062" stop-color="rgb(57.485962%, 68.960571%, 85.289001%)" stop-opacity="1"/>
<stop offset="0.667969" stop-color="rgb(57.217407%, 68.766785%, 85.195923%)" stop-opacity="1"/>
<stop offset="0.671875" stop-color="rgb(56.950378%, 68.572998%, 85.10437%)" stop-opacity="1"/>
<stop offset="0.675781" stop-color="rgb(56.681824%, 68.379211%, 85.011292%)" stop-opacity="1"/>
<stop offset="0.679687" stop-color="rgb(56.413269%, 68.186951%, 84.919739%)" stop-opacity="1"/>
<stop offset="0.683594" stop-color="rgb(56.144714%, 67.993164%, 84.82666%)" stop-opacity="1"/>
<stop offset="0.6875" stop-color="rgb(55.877686%, 67.799377%, 84.735107%)" stop-opacity="1"/>
<stop offset="0.691406" stop-color="rgb(55.609131%, 67.605591%, 84.642029%)" stop-opacity="1"/>
<stop offset="0.695312" stop-color="rgb(55.340576%, 67.411804%, 84.550476%)" stop-opacity="1"/>
<stop offset="0.699219" stop-color="rgb(55.072021%, 67.218018%, 84.457397%)" stop-opacity="1"/>
<stop offset="0.703125" stop-color="rgb(54.803467%, 67.024231%, 84.365845%)" stop-opacity="1"/>
<stop offset="0.707031" stop-color="rgb(54.534912%, 66.830444%, 84.272766%)" stop-opacity="1"/>
<stop offset="0.710937" stop-color="rgb(54.267883%, 66.636658%, 84.181213%)" stop-opacity="1"/>
<stop offset="0.714844" stop-color="rgb(53.999329%, 66.442871%, 84.088135%)" stop-opacity="1"/>
<stop offset="0.71875" stop-color="rgb(53.730774%, 66.249084%, 83.995056%)" stop-opacity="1"/>
<stop offset="0.722656" stop-color="rgb(53.462219%, 66.055298%, 83.901978%)" stop-opacity="1"/>
<stop offset="0.726562" stop-color="rgb(53.19519%, 65.863037%, 83.810425%)" stop-opacity="1"/>
<stop offset="0.730469" stop-color="rgb(52.926636%, 65.66925%, 83.717346%)" stop-opacity="1"/>
<stop offset="0.734375" stop-color="rgb(52.658081%, 65.475464%, 83.625793%)" stop-opacity="1"/>
<stop offset="0.738281" stop-color="rgb(52.389526%, 65.281677%, 83.532715%)" stop-opacity="1"/>
<stop offset="0.742187" stop-color="rgb(52.120972%, 65.087891%, 83.441162%)" stop-opacity="1"/>
<stop offset="0.746094" stop-color="rgb(51.852417%, 64.894104%, 83.348083%)" stop-opacity="1"/>
<stop offset="0.75" stop-color="rgb(51.585388%, 64.700317%, 83.256531%)" stop-opacity="1"/>
<stop offset="0.753906" stop-color="rgb(51.316833%, 64.506531%, 83.163452%)" stop-opacity="1"/>
<stop offset="0.757812" stop-color="rgb(51.048279%, 64.312744%, 83.071899%)" stop-opacity="1"/>
<stop offset="0.761719" stop-color="rgb(50.779724%, 64.118958%, 82.978821%)" stop-opacity="1"/>
<stop offset="0.765625" stop-color="rgb(50.512695%, 63.926697%, 82.887268%)" stop-opacity="1"/>
<stop offset="0.769531" stop-color="rgb(50.244141%, 63.73291%, 82.794189%)" stop-opacity="1"/>
<stop offset="0.773437" stop-color="rgb(49.975586%, 63.539124%, 82.702637%)" stop-opacity="1"/>
<stop offset="0.777344" stop-color="rgb(49.707031%, 63.345337%, 82.609558%)" stop-opacity="1"/>
<stop offset="0.78125" stop-color="rgb(49.438477%, 63.15155%, 82.518005%)" stop-opacity="1"/>
<stop offset="0.785156" stop-color="rgb(49.169922%, 62.957764%, 82.424927%)" stop-opacity="1"/>
<stop offset="0.789062" stop-color="rgb(48.902893%, 62.763977%, 82.333374%)" stop-opacity="1"/>
<stop offset="0.792969" stop-color="rgb(48.634338%, 62.57019%, 82.240295%)" stop-opacity="1"/>
<stop offset="0.796875" stop-color="rgb(48.365784%, 62.376404%, 82.148743%)" stop-opacity="1"/>
<stop offset="0.800781" stop-color="rgb(48.097229%, 62.182617%, 82.055664%)" stop-opacity="1"/>
<stop offset="0.804687" stop-color="rgb(47.8302%, 61.990356%, 81.964111%)" stop-opacity="1"/>
<stop offset="0.808594" stop-color="rgb(47.561646%, 61.79657%, 81.871033%)" stop-opacity="1"/>
<stop offset="0.8125" stop-color="rgb(47.293091%, 61.602783%, 81.777954%)" stop-opacity="1"/>
<stop offset="0.816406" stop-color="rgb(47.024536%, 61.408997%, 81.684875%)" stop-opacity="1"/>
<stop offset="0.820312" stop-color="rgb(46.755981%, 61.21521%, 81.593323%)" stop-opacity="1"/>
<stop offset="0.824219" stop-color="rgb(46.487427%, 61.021423%, 81.500244%)" stop-opacity="1"/>
<stop offset="0.828125" stop-color="rgb(46.220398%, 60.827637%, 81.408691%)" stop-opacity="1"/>
<stop offset="0.832031" stop-color="rgb(45.951843%, 60.63385%, 81.315613%)" stop-opacity="1"/>
<stop offset="0.835937" stop-color="rgb(45.683289%, 60.440063%, 81.22406%)" stop-opacity="1"/>
<stop offset="0.839844" stop-color="rgb(45.414734%, 60.246277%, 81.130981%)" stop-opacity="1"/>
<stop offset="0.84375" stop-color="rgb(45.147705%, 60.054016%, 81.039429%)" stop-opacity="1"/>
<stop offset="0.847656" stop-color="rgb(44.87915%, 59.860229%, 80.94635%)" stop-opacity="1"/>
<stop offset="0.851562" stop-color="rgb(44.610596%, 59.666443%, 80.854797%)" stop-opacity="1"/>
<stop offset="0.855469" stop-color="rgb(44.342041%, 59.472656%, 80.761719%)" stop-opacity="1"/>
<stop offset="0.859375" stop-color="rgb(44.073486%, 59.27887%, 80.670166%)" stop-opacity="1"/>
<stop offset="0.863281" stop-color="rgb(43.804932%, 59.085083%, 80.577087%)" stop-opacity="1"/>
<stop offset="0.867187" stop-color="rgb(43.537903%, 58.891296%, 80.485535%)" stop-opacity="1"/>
<stop offset="0.871094" stop-color="rgb(43.269348%, 58.69751%, 80.392456%)" stop-opacity="1"/>
<stop offset="0.875" stop-color="rgb(43.000793%, 58.503723%, 80.300903%)" stop-opacity="1"/>
<stop offset="0.878906" stop-color="rgb(42.732239%, 58.309937%, 80.207825%)" stop-opacity="1"/>
<stop offset="0.882812" stop-color="rgb(42.46521%, 58.117676%, 80.116272%)" stop-opacity="1"/>
<stop offset="0.886719" stop-color="rgb(42.196655%, 57.923889%, 80.023193%)" stop-opacity="1"/>
<stop offset="0.890625" stop-color="rgb(41.928101%, 57.730103%, 79.931641%)" stop-opacity="1"/>
<stop offset="0.894531" stop-color="rgb(41.659546%, 57.536316%, 79.838562%)" stop-opacity="1"/>
<stop offset="0.898438" stop-color="rgb(41.390991%, 57.342529%, 79.747009%)" stop-opacity="1"/>
<stop offset="0.902344" stop-color="rgb(41.122437%, 57.148743%, 79.653931%)" stop-opacity="1"/>
<stop offset="0.90625" stop-color="rgb(40.855408%, 56.954956%, 79.562378%)" stop-opacity="1"/>
<stop offset="0.910156" stop-color="rgb(40.586853%, 56.761169%, 79.469299%)" stop-opacity="1"/>
<stop offset="0.914062" stop-color="rgb(40.318298%, 56.567383%, 79.376221%)" stop-opacity="1"/>
<stop offset="0.917969" stop-color="rgb(40.049744%, 56.373596%, 79.283142%)" stop-opacity="1"/>
<stop offset="0.921875" stop-color="rgb(39.782715%, 56.181335%, 79.191589%)" stop-opacity="1"/>
<stop offset="0.925781" stop-color="rgb(39.51416%, 55.987549%, 79.098511%)" stop-opacity="1"/>
<stop offset="0.929688" stop-color="rgb(39.245605%, 55.793762%, 79.006958%)" stop-opacity="1"/>
<stop offset="0.933594" stop-color="rgb(38.977051%, 55.599976%, 78.913879%)" stop-opacity="1"/>
<stop offset="0.9375" stop-color="rgb(38.708496%, 55.406189%, 78.822327%)" stop-opacity="1"/>
<stop offset="0.941406" stop-color="rgb(38.439941%, 55.212402%, 78.729248%)" stop-opacity="1"/>
<stop offset="0.945312" stop-color="rgb(38.172913%, 55.018616%, 78.637695%)" stop-opacity="1"/>
<stop offset="0.949219" stop-color="rgb(37.904358%, 54.824829%, 78.544617%)" stop-opacity="1"/>
<stop offset="0.953125" stop-color="rgb(37.635803%, 54.631042%, 78.453064%)" stop-opacity="1"/>
<stop offset="0.957031" stop-color="rgb(37.367249%, 54.437256%, 78.359985%)" stop-opacity="1"/>
<stop offset="0.960937" stop-color="rgb(37.10022%, 54.244995%, 78.268433%)" stop-opacity="1"/>
<stop offset="0.964844" stop-color="rgb(36.831665%, 54.051208%, 78.175354%)" stop-opacity="1"/>
<stop offset="0.96875" stop-color="rgb(36.56311%, 53.857422%, 78.083801%)" stop-opacity="1"/>
<stop offset="0.972656" stop-color="rgb(36.294556%, 53.663635%, 77.990723%)" stop-opacity="1"/>
<stop offset="0.976562" stop-color="rgb(36.026001%, 53.469849%, 77.89917%)" stop-opacity="1"/>
<stop offset="0.980469" stop-color="rgb(35.757446%, 53.276062%, 77.806091%)" stop-opacity="1"/>
<stop offset="0.984375" stop-color="rgb(35.490417%, 53.082275%, 77.714539%)" stop-opacity="1"/>
<stop offset="1" stop-color="rgb(35.391235%, 53.010559%, 77.679443%)" stop-opacity="1"/>
</linearGradient>
</defs>
<path fill-rule="evenodd" fill="rgb(20.776367%, 43.138123%, 77.34375%)" fill-opacity="1" d="M 1936.488281 0 C 3001.578125 0 3872.980469 871.421875 3872.980469 1936.488281 C 3872.980469 3001.578125 3001.578125 3872.980469 1936.488281 3872.980469 C 871.414062 3872.980469 0 3001.578125 0 1936.488281 C 0 871.421875 871.414062 0 1936.488281 0 "/>
<g clip-path="url(#clip-0)">
<g clip-path="url(#clip-1)">
<path fill-rule="nonzero" fill="url(#linear-pattern-0)" d="M 525.085938 664.398438 L 525.085938 3154.398438 L 3192.78125 3154.398438 L 3192.78125 664.398438 Z M 525.085938 664.398438 "/>
</g>
</g>
</svg>
